<?xml version="1.0" encoding="UTF-8"?>
<!DOCTYPE svg PUBLIC "-//W3C//DTD SVG 1.1//EN" "http://www.w3.org/Graphics/SVG/1.1/DTD/svg11.dtd">
<!-- Creator: CorelDRAW 2017 -->
<svg xmlns="http://www.w3.org/2000/svg" xml:space="preserve" width="2.68055in" height="2.68055in" version="1.1" style="shape-rendering:geometricPrecision; text-rendering:geometricPrecision; image-rendering:optimizeQuality; fill-rule:evenodd; clip-rule:evenodd"
viewBox="0 0 2680.55 2680.55"
 xmlns:xlink="http://www.w3.org/1999/xlink">
 <defs>
  <style type="text/css">
   <![CDATA[
    .fil0 {fill:#252C58}
   ]]>
  </style>
 </defs>
 <g id="Layer_x0020_1">
  <metadata id="CorelCorpID_0Corel-Layer"/>
  <path class="fil0" d="M1832.26 789.62l3.09 -2.47c-17.92,-20.37 -36.44,-40.75 -56.82,-59.89 -169.81,-169.82 -374.82,-255.03 -615.02,-255.03 -240.21,0 -445.83,85.21 -616.26,255.03 -13.59,13.59 -27.17,28.41 -40.14,43.22 -1.85,1.24 -3.7,3.08 -6.17,5.56l-0.62 7.42c190.19,-194.52 411.25,-290.24 665.04,-287.14 253.18,3.08 475.47,100.65 666.89,293.3z"/>
  <path class="fil0" d="M2034.19 1342.9c0,-12.35 -0.63,-24.7 -1.24,-36.43 -28.42,182.16 -121.03,356.29 -277.26,522.4 -156.83,166.72 -357.53,250.7 -601.44,253.17 -245.14,1.24 -441.5,-80.89 -590.31,-246.38 -149.44,-165.48 -239.59,-334.68 -271.08,-508.19 0,4.94 0,10.5 0,15.44 -0.62,240.2 84.6,445.21 254.41,615.02 170.43,170.43 376.05,255.65 616.26,255.65 240.2,0 445.21,-85.22 615.02,-255.65 170.43,-169.81 255.65,-374.82 255.65,-615.02z"/>
  <polygon class="fil0" points="485.52,818.02 1143.15,1581.87 2386.78,488.91 1141.91,1304.61 "/>
 </g>
</svg>
