<?xml version="1.0" encoding="UTF-8"?>
<!DOCTYPE svg PUBLIC "-//W3C//DTD SVG 1.1//EN" "http://www.w3.org/Graphics/SVG/1.1/DTD/svg11.dtd">
<!-- Creator: CorelDRAW 2017 -->
<?xml-stylesheet href="17072-logowatchyougot-410d4393-411d-490d-be99-1e5fb0fbd057.css" type="text/css"?>
<svg xmlns="http://www.w3.org/2000/svg" xml:space="preserve" width="4.13386in" height="5.82677in" version="1.1" style="shape-rendering:geometricPrecision; text-rendering:geometricPrecision; image-rendering:optimizeQuality; fill-rule:evenodd; clip-rule:evenodd"
viewBox="0 0 4133.86 5826.77"
 xmlns:xlink="http://www.w3.org/1999/xlink">
 <g id="Layer_x0020_1">
  <metadata id="CorelCorpID_0Corel-Layer"/>
  <path class="fil0 str0" d="M279.8 1051.92c0.25,-87.75 78.65,-148.82 155.3,-211.07 5.18,17 3.52,22.87 11.11,43.58l37.41 7.53c-14.67,67.11 -146.06,155.21 -203.82,159.96zm491.44 -533.32c83.84,48.17 71.89,155.96 21.95,221.53 -59.6,78.24 -155.13,101 -219.76,62.9 -83.33,-49.12 -71.8,-154.46 -22.54,-219.85 58.37,-77.48 153.41,-103.04 220.35,-64.58l0 -0zm84.43 -97.69c89.85,-141.37 134.05,-125.99 198.96,-164.57 34.83,63.85 -110.89,188.15 -145.74,217.85 -7.55,-19.4 -0.09,-19.66 -10.17,-43.42 -23.2,-4.89 -24.47,2.05 -43.05,-9.86zm168.09 -238.71l24.7 31.2c-93.84,31.2 -124.14,39.96 -199.12,138.29 -33.16,43.49 -32.13,84.6 -132.81,78.31 -78.85,-4.92 -193.66,53.41 -244.15,152.73 -41.85,82.32 -24.22,124.44 -33.46,154.1 -10.53,33.79 -7.48,21.84 -8.49,53.02 -67.58,43 -136.41,100.76 -176.42,178.03 -13.24,25.57 -16.16,47.97 -24.74,67.76l-28.84 -14.34c-74.45,59.26 -84.5,76.04 -22.67,138.12 31.29,31.41 52.32,51.8 85.09,20.61 15.96,-15.18 28.54,-14.2 40.39,-30.77 15.32,-21.42 0.11,-24.89 -5.83,-44.81 116.33,-38 161.36,-88.06 227.93,-187.5 15.66,-23.4 15,-19.02 36.39,-19.78 29.7,-1.05 22.74,-8.59 46.2,-10.43 32.62,-2.56 46.84,1.78 88.51,-9.28 78.65,-20.87 66.37,-52.47 100.72,-38.83 11.74,4.67 -1.04,2.12 11.48,4.5 11.43,2.17 14.21,1.6 27.48,-9.9 26.81,-23.23 21.77,-30.76 2.46,-54.89 53.39,-80.31 52.17,-103.06 59.5,-180.87 1.76,-18.72 8,-23.36 10.2,-46.1 2.29,-23.67 -3.5,-21.48 23.04,-38.52 88.29,-56.68 155.59,-127.57 177.94,-230.9 1.37,0.09 4.31,0.03 3.94,1.18 -0.19,0.6 19.83,10.65 34.98,-0.92 3.28,-2.5 27.53,-31.37 32.79,-37.21 22.1,-24.56 5.84,-55.02 -10.31,-79.86 -9.79,-15.06 -69.28,-48.82 -80.76,-48.09 -21.58,1.37 -21.01,17.88 -31.65,30.78 -13.15,15.94 -20.15,12.78 -34.49,34.37l-0.01 0z"/>
  <path class="fil1 str1" d="M279.8 1051.92c57.76,-4.75 189.15,-92.85 203.82,-159.96l-37.41 -7.53c-7.59,-20.71 -5.94,-26.58 -11.11,-43.58 -76.65,62.25 -155.06,123.33 -155.3,211.07z"/>
  <path class="fil1 str1" d="M855.67 420.91c18.58,11.91 19.85,4.97 43.05,9.86 10.07,23.76 2.62,24.02 10.17,43.42 34.85,-29.7 180.57,-154 145.74,-217.85 -64.91,38.58 -109.11,23.2 -198.96,164.57z"/>
  <path class="fil2 str2" d="M164.07 1051.96c6.71,14.89 13.43,29.78 21.85,43.01 8.42,13.23 18.54,24.8 27.7,33.72 9.16,8.92 17.35,15.19 26.56,22.33 9.2,7.13 19.42,15.14 29.63,23.15"/>
  <path class="fil2 str2" d="M1170.81 256.74c-7.48,-12.69 -14.97,-25.39 -24.37,-36.93 -9.41,-11.54 -20.73,-21.94 -30.81,-29.81 -10.07,-7.87 -18.91,-13.2 -28.84,-19.29 -9.93,-6.09 -20.95,-12.93 -31.98,-19.78"/>
  <ellipse class="fil2 str3" cx="665.61" cy="658" rx="10.94" ry="10.68"/>
  <line class="fil2 str3" x1="673.18" y1="650.28" x2="741.15" y2= "574.92" />
  <line class="fil2 str3" x1="666.63" y1="667.79" x2="687.46" y2= "792.79" />
  <g id="_2980477768720">
   <path class="fil3" d="M512.07 815.7c3.27,1.2 7.61,3.05 11.04,4.44 0.87,0.36 1.21,0.33 1.43,0.83l4.53 10.92c0.39,0.96 0.43,0.71 0.02,1.69 -0.89,2.13 -1.67,4.2 -2.54,6.31 -0.87,2.09 -1.7,4.17 -2.54,6.32 -0.21,0.55 -0.81,0.61 -1.33,0.83l-4.72 1.97c-0.91,0.39 -5.75,2.56 -6.42,2.34 -2.14,-0.7 -8.31,-3.33 -10.99,-4.47 -0.97,-0.41 -0.72,-0.19 -1.11,-1.14 -0.87,-2.11 -1.72,-4.24 -2.54,-6.32 -0.84,-2.13 -1.72,-4.2 -2.55,-6.31 -0.22,-0.56 0.15,-1.12 0.36,-1.62l3.91 -9.39c0.87,-2.07 0.17,-1.23 3.9,-2.78l7.87 -3.16c0.44,-0.18 1.22,-0.64 1.69,-0.47l-0.01 0.01z"/>
   <path class="fil4" d="M511.07 863.39c-0.66,-0.67 -1.3,-1.16 -1.99,-1.84 -0.19,-0.18 -0.32,-0.28 -0.52,-0.45 -0.19,-0.16 -0.31,-0.3 -0.5,-0.47l-2.04 -1.83c-0.48,-0.41 -2.79,-2.61 -3.07,-2.74 -0.2,0.29 -1.82,4.66 -1.94,5.18 1.56,0.53 2.89,1.04 4.66,1.45 1.17,0.27 4.18,0.82 5.39,0.69l0.01 0.01zm11.54 -2.14c-0.11,-0.53 -1.75,-4.92 -1.94,-5.19 -0.22,0.1 -0.86,0.71 -1.05,0.89 -0.4,0.4 -0.62,0.54 -1.01,0.92 -0.29,0.29 -0.67,0.63 -1.01,0.93 -0.33,0.29 -0.67,0.63 -1.02,0.91 -0.36,0.3 -0.67,0.61 -1.02,0.91 -0.19,0.16 -0.31,0.31 -0.5,0.47l-2.51 2.29c1.7,0.19 5.94,-0.75 7.8,-1.35 0.78,-0.25 1.54,-0.57 2.25,-0.79l0.02 0.01zm-20.5 -5.37l-9.6 0.07c0.26,0.48 2.92,2.3 3.62,2.76 0.76,0.49 3.26,1.98 4.15,2.18l1.83 -5.01zm21.23 5.02c1.54,-0.38 7.5,-4.23 7.73,-4.96l-9.59 -0.05 1.86 5.01 0 0zm-3.43 -5.3c-0.4,-0.24 -1.47,-0.62 -1.97,-0.82 -0.9,-0.35 -5.61,-2.31 -6.13,-2.31 -0.53,0 -5.25,1.96 -6.13,2.31 -0.52,0.21 -1.53,0.55 -1.96,0.81 0.19,0.3 1.61,1.49 1.98,1.85l5.07 4.59c0.26,0.25 0.74,0.71 1.05,0.9 0.41,-0.24 0.68,-0.56 1.04,-0.91 0.31,-0.31 0.65,-0.59 1.02,-0.92 0.68,-0.61 1.35,-1.23 2.04,-1.83l2.03 -1.84c0.44,-0.44 1.72,-1.44 1.98,-1.85l-0.02 0.02zm-9.31 -3.63c-0.13,-0.12 -9.82,-4.21 -10.38,-4.34 0.17,0.67 2.74,6.96 2.98,7.26 0.52,-0.06 6.36,-2.52 7.41,-2.92l-0.01 0zm9.83 2.92c0.23,-0.26 2.85,-6.69 2.98,-7.26 -0.61,0.16 -4.22,1.74 -5.26,2.16 -0.68,0.27 -4.83,1.95 -5.13,2.18 1.21,0.44 6.78,2.84 7.4,2.92l0.01 -0zm-30.98 -11.72c-0.25,-0.02 -4.56,1.66 -4.88,1.88 0.34,1.6 4.25,7.67 5.28,8.25l-0.4 -10.13 0 0zm49.61 1.88c-0.44,-0.31 -2.43,-0.98 -3.12,-1.26 -2.08,-0.83 -1.76,-0.94 -1.79,0.13 -0.05,1.73 -0.44,8.56 -0.35,9.4 1.26,-1.11 3.32,-4.35 4.17,-5.94 0.26,-0.49 0.97,-1.79 1.08,-2.33l0.01 0zm-36.75 10.05c-0.05,-0.47 -2.07,-5.24 -2.52,-6.39 -0.59,-1.53 -0.44,-1.47 -1.2,-1.78 -2.12,-0.86 -6.51,-2.82 -8.31,-3.44 -0.13,1.37 0.14,3.87 0.19,5.35 0.06,1.53 0.31,4.01 0.16,5.43 1.13,0.85 0.26,0.91 2.27,0.89l9.42 -0.06 -0.01 0zm30.68 -1.75c0.06,-1.45 0.44,-9.26 0.37,-9.86 -2.11,0.74 -6,2.52 -8.37,3.46 -0.6,0.24 -0.5,0.2 -0.74,0.79l-2.13 5.28c-0.2,0.48 -0.75,1.69 -0.8,2.09l8.94 0.06c2.19,0.02 1.57,0.19 2.41,-0.61 0.49,-0.46 0.29,-0.45 0.32,-1.2l0 -0.01zm0.36 -10.75c0.06,-0.62 -1.36,-3.66 -1.67,-4.44 -0.25,-0.63 -1.61,-4 -1.86,-4.3l-4.89 12.27 8.42 -3.52 -0 -0.01zm-39.57 -8.73c-0.2,0.26 -2.44,5.75 -2.75,6.51 -0.88,2.21 -1.09,2.13 -0.21,2.48l3.65 1.51c0.73,0.31 1.37,0.57 2.1,0.88 0.59,0.25 1.54,0.7 2.17,0.85l-4.96 -12.22 0 -0.02zm45.9 3.21l-3.48 3.52c-0.31,0.31 -1.57,1.48 -1.67,1.8 0.58,0.27 4.51,1.81 4.92,1.87 0.15,-0.63 0.49,-1.37 0.7,-2.06 0.53,-1.72 1.35,-5.21 1.27,-6.87 -0.53,0.61 -1.09,1.07 -1.74,1.73l-0 0.01zm-53.99 1.74c-1.1,-1.13 -2.48,-2.39 -3.47,-3.46 -0.06,1.18 0.43,3.58 0.69,4.72 0.44,1.94 0.98,3.02 1.29,4.2 0.44,-0.04 4.42,-1.63 4.96,-1.89l-3.47 -3.56 -0 -0.01zm3.97 2.85c0.44,-1.3 2.96,-7.12 3.55,-8.54 0.22,-0.54 0.04,-0.69 -0.16,-1.19 -0.37,-0.87 -2.78,-7.11 -3.05,-7.44l-3.96 4.28c-0.6,0.7 -3.78,4.04 -3.87,4.26 -0.1,0.23 -0.09,0.7 -0.03,0.98 0.05,0.24 0.27,0.4 0.46,0.57 1.35,1.25 6.55,6.83 7.07,7.08l-0.01 0zm22.42 -25.96c-0.46,-0.17 -1.25,0.29 -1.69,0.47l-7.87 3.16c-3.73,1.55 -3.02,0.71 -3.9,2.78l-3.91 9.39c-0.21,0.5 -0.58,1.06 -0.36,1.62 0.83,2.11 1.71,4.18 2.55,6.31 0.82,2.08 1.67,4.21 2.54,6.32 0.4,0.95 0.15,0.73 1.11,1.14 2.67,1.15 8.85,3.77 10.99,4.47 0.67,0.22 5.51,-1.96 6.42,-2.34l4.72 -1.97c0.52,-0.22 1.12,-0.28 1.33,-0.83 0.84,-2.15 1.67,-4.22 2.54,-6.32 0.87,-2.11 1.65,-4.19 2.54,-6.31 0.41,-0.98 0.37,-0.73 -0.02,-1.69l-4.53 -10.92c-0.22,-0.5 -0.56,-0.47 -1.43,-0.83 -3.43,-1.39 -7.77,-3.24 -11.04,-4.44l0.01 -0.01zm21.96 25.94c0.6,-0.48 5.13,-5.18 6.08,-6.14 0.35,-0.35 0.64,-0.68 1,-1.01 0.31,-0.29 0.37,-0.22 0.4,-0.63 0.02,-0.28 0.05,-0.66 -0.08,-0.89l-1.96 -2.15c-0.12,-0.14 -5.58,-6.17 -5.85,-6.33 -0.23,0.29 -2.26,5.46 -2.67,6.52 -0.41,1.04 -0.78,1.5 -0.54,2.09 0.43,1.05 3.37,8.3 3.61,8.53l0.01 0.01zm-49.7 -19.94c-1,2.71 -2.27,6.74 -2.19,10.07 0.25,-0.17 0.74,-0.73 0.97,-0.99l2.7 -2.94c0.52,-0.61 3.44,-3.66 3.59,-3.99l-5.07 -2.15 0 -0zm57.13 10.06c0.1,-2.36 -1.22,-8.33 -2.2,-10.06l-5.04 2.18c0.16,0.33 0.61,0.69 0.89,1.02 1.28,1.5 3.24,3.43 4.51,4.92 0.33,0.39 1.52,1.74 1.85,1.95l-0.01 -0.01zm-47.69 -0.16l0.32 -0.65c0.64,-1.61 3.93,-9.27 4.05,-9.84l-6.48 2.57c-0.31,0.12 -0.68,0.24 -0.93,0.43l3.04 7.48 0 0.01zm39.09 -7.49c-0.19,-0.15 -0.18,-0.13 -0.45,-0.24l-6.94 -2.76c0.13,0.52 2.8,6.81 3.25,7.9 0.19,0.46 0.36,0.85 0.55,1.31l0.39 0.97c0.09,0.17 0,0 0.1,0.16 0.01,0.01 0.04,0.07 0.04,0.05 0,-0.01 0.03,0.04 0.04,0.05 0.29,-0.38 2.96,-7.23 3.02,-7.45l0 0zm-43.26 -10.83c-0.86,0.51 -4.6,6.18 -4.92,7.7l5.18 2.17 -0.26 -9.87zm49.33 7.69c-0.17,-0.84 -1.7,-3.37 -2.16,-4.1 -0.45,-0.72 -2.21,-3.27 -2.75,-3.58l-0.24 9.89 5.15 -2.21 0 -0zm-28.15 -5.89c-0.66,-0.21 -1.33,-0.55 -2.01,-0.82l-3.92 -1.63c-0.47,-0.19 -1.52,-0.7 -1.98,-0.77l-3.2 7.74c0.69,-0.15 2.07,-0.81 2.82,-1.11 0.93,-0.38 1.84,-0.73 2.76,-1.1l5.23 -2.1c0.09,-0.04 0.1,-0.04 0.17,-0.09 0.12,-0.08 0.06,-0.03 0.15,-0.13l-0.01 0.01zm9.96 -3.2c-0.29,0.01 -7.22,2.86 -7.88,3.21 0.07,0.09 -0.02,0.03 0.17,0.14l5.33 2.16c0.83,0.33 5.11,2.1 5.59,2.2l-3.22 -7.71 0.01 -0zm-30.1 11.35c0.38,-0.06 5.43,-2.15 6.22,-2.46 0.7,-0.29 1.65,-0.52 1.86,-0.95l3.34 -8.11c-2.39,-0.07 -6.18,0.05 -8.78,0.1 -0.48,0.01 -0.97,0.02 -1.45,0.02 -1.37,0.01 -1.48,0.13 -1.45,1.51l0.26 9.9 0 -0.01zm42.56 -8.61c0.06,-2.64 0.33,-2.78 -1.58,-2.8 -3.06,-0.04 -7.3,-0.2 -10.07,-0.12 0.16,0.59 2.12,5.13 2.54,6.17 0.86,2.18 0.61,2.07 1.75,2.52 1.36,0.53 6.62,2.76 7.14,2.83l0.23 -8.61 -0.01 0.01zm-13.08 -3.37c-0.22,-0.4 -1.68,-1.53 -2.07,-1.9 -0.69,-0.65 -1.35,-1.16 -2.06,-1.81l-4.19 -3.62 -3.15 2.73c-0.34,0.3 -0.72,0.59 -1.04,0.89 -0.72,0.67 -1.36,1.17 -2.09,1.85 -0.35,0.33 -1.88,1.53 -2.04,1.86 1.18,0.34 7.8,3.37 8.31,3.38 0.27,0 3.64,-1.46 4.2,-1.69l4.12 -1.69 0.01 0zm-17.87 -0.34c-0.15,-0.77 -2.12,-4.08 -2.5,-5.24 -1.57,0.37 -7.41,4.33 -7.94,5.37l10.45 -0.13 -0.01 0zm29.57 0.13c-0.31,-0.59 -2.98,-2.54 -3.67,-3.01 -0.7,-0.48 -3.41,-2.16 -4.27,-2.35 -0.4,1.19 -2.31,4.35 -2.5,5.23l10.45 0.13 -0.01 0zm-24.7 -4.09c0.7,-0.57 1.32,-1.19 2.02,-1.76 0.49,-0.4 1.61,-1.5 2.04,-1.74 -0.09,-0.27 -0.02,-0.06 -0.13,-0.3 -0.01,-0.02 -0.05,-0.1 -0.06,-0.11l-0.06 -0.12c-1.72,-0.02 -4.09,0.42 -5.68,0.8 -1.01,0.24 -4.27,1.17 -4.8,1.65 0.17,0.49 2.39,4.98 2.58,5.14 0.61,-0.41 3.21,-2.84 4.09,-3.55l0 -0.01zm16.05 -1.59c-0.53,-0.47 -3.83,-1.43 -4.86,-1.67 -1.71,-0.41 -3.78,-0.75 -5.61,-0.8 -0.05,0.07 -0.22,0.46 -0.25,0.54 0.64,0.39 7.77,6.91 8.2,7.07l2.51 -5.14 0 0zm19.08 29.63c-0.43,6.31 -2.6,12.2 -6.21,16.89 -0.86,1.11 -2.6,3.16 -3.63,4.03 -3.17,2.68 -5.21,4.29 -9.37,6.01 -3.8,1.56 -8.38,2.57 -13,2.24 -7.03,-0.52 -13.3,-3.38 -18.28,-7.75 -1.02,-0.89 -1.49,-1.48 -2.37,-2.38 -2.07,-2.13 -4.59,-5.98 -5.91,-9.47 -3.23,-8.61 -2.85,-17.17 1.16,-25.37 1.38,-2.82 2.82,-4.65 4.72,-6.87 1.02,-1.2 2.67,-2.69 3.96,-3.69 9.25,-7.2 21.64,-8.66 32.22,-3.06 4.16,2.2 7.64,5.1 10.44,8.81 4.34,5.77 6.79,13.08 6.27,20.62l-0.01 -0.02z"/>
   <path class="fil3" d="M534.05 841.64c-0.24,-0.22 -3.18,-7.48 -3.61,-8.53 -0.25,-0.6 0.13,-1.05 0.54,-2.09 0.42,-1.06 2.44,-6.24 2.67,-6.52 0.26,0.16 5.72,6.19 5.85,6.33l1.96 2.15c0.13,0.23 0.1,0.61 0.08,0.89 -0.03,0.41 -0.08,0.35 -0.4,0.63 -0.37,0.33 -0.66,0.66 -1,1.01 -0.94,0.96 -5.48,5.66 -6.08,6.14l-0.01 -0.01z"/>
   <path class="fil3" d="M489.66 841.65c-0.52,-0.25 -5.72,-5.83 -7.07,-7.08 -0.19,-0.17 -0.41,-0.33 -0.46,-0.57 -0.06,-0.27 -0.07,-0.74 0.03,-0.98 0.1,-0.22 3.27,-3.56 3.87,-4.26l3.96 -4.28c0.27,0.34 2.69,6.57 3.05,7.44 0.2,0.49 0.39,0.65 0.16,1.19 -0.59,1.42 -3.1,7.24 -3.55,8.54l0.01 0z"/>
   <path class="fil3" d="M502.31 855.09l-9.42 0.06c-2.01,0.02 -1.14,-0.04 -2.27,-0.89 0.15,-1.42 -0.1,-3.9 -0.16,-5.43 -0.05,-1.48 -0.32,-3.98 -0.19,-5.35 1.8,0.62 6.2,2.58 8.31,3.44 0.76,0.31 0.61,0.26 1.2,1.78 0.45,1.16 2.47,5.93 2.52,6.39l0.01 0z"/>
   <path class="fil3" d="M521.31 855.09c0.05,-0.4 0.6,-1.6 0.8,-2.09l2.13 -5.28c0.24,-0.59 0.15,-0.55 0.74,-0.79 2.37,-0.94 6.26,-2.72 8.37,-3.46 0.07,0.6 -0.31,8.41 -0.37,9.86 -0.03,0.75 0.17,0.74 -0.32,1.2 -0.84,0.79 -0.22,0.62 -2.41,0.61l-8.94 -0.06 0 0.01z"/>
   <path class="fil3" d="M532.98 823.22c-0.52,-0.07 -5.78,-2.3 -7.14,-2.83 -1.14,-0.45 -0.89,-0.35 -1.75,-2.52 -0.41,-1.04 -2.38,-5.58 -2.54,-6.17 2.77,-0.09 7,0.08 10.07,0.12 1.91,0.02 1.64,0.16 1.58,2.8l-0.23 8.61 0.01 -0.01z"/>
   <path class="fil3" d="M490.66 823.22l-0.26 -9.9c-0.03,-1.38 0.08,-1.5 1.45,-1.51 0.48,-0.01 0.96,-0.02 1.45,-0.02 2.6,-0.05 6.39,-0.17 8.78,-0.1l-3.34 8.11c-0.21,0.43 -1.17,0.67 -1.86,0.95 -0.79,0.32 -5.84,2.41 -6.22,2.46l0 0.01z"/>
   <path class="fil3" d="M520.14 811.24l-4.12 1.69c-0.56,0.24 -3.93,1.69 -4.2,1.69 -0.52,0 -7.13,-3.04 -8.31,-3.38 0.16,-0.33 1.68,-1.54 2.04,-1.86 0.73,-0.68 1.37,-1.18 2.09,-1.85 0.33,-0.3 0.7,-0.6 1.04,-0.89l3.15 -2.73 4.19 3.62c0.71,0.66 1.37,1.17 2.06,1.81 0.39,0.37 1.86,1.5 2.07,1.9l-0.01 0z"/>
   <path class="fil3" d="M519.92 855.59c-0.25,0.41 -1.54,1.41 -1.98,1.85l-2.03 1.84c-0.69,0.6 -1.36,1.21 -2.04,1.83 -0.37,0.33 -0.7,0.61 -1.02,0.92 -0.36,0.35 -0.63,0.67 -1.04,0.91 -0.31,-0.19 -0.8,-0.65 -1.05,-0.9l-5.07 -4.59c-0.37,-0.36 -1.79,-1.55 -1.98,-1.85 0.44,-0.26 1.44,-0.6 1.96,-0.81 0.88,-0.35 5.61,-2.31 6.13,-2.31 0.52,0 5.23,1.96 6.13,2.31 0.5,0.2 1.57,0.57 1.97,0.82l0.02 -0.02z"/>
   <path class="fil3" d="M498.74 846.08c-0.63,-0.15 -1.57,-0.6 -2.17,-0.85 -0.73,-0.31 -1.37,-0.57 -2.1,-0.88l-3.65 -1.51c-0.88,-0.34 -0.67,-0.27 0.21,-2.48 0.3,-0.76 2.55,-6.24 2.75,-6.51l4.96 12.22 0 0.02z"/>
   <path class="fil3" d="M533.35 842.59l-8.42 3.52 4.89 -12.27c0.24,0.3 1.61,3.67 1.86,4.3 0.31,0.79 1.73,3.83 1.67,4.44l0 0.01z"/>
   <path class="fil3" d="M511.19 803.43c-0.43,0.24 -1.54,1.35 -2.04,1.74 -0.7,0.57 -1.31,1.2 -2.02,1.76 -0.88,0.71 -3.48,3.15 -4.09,3.55 -0.19,-0.16 -2.41,-4.65 -2.58,-5.14 0.53,-0.48 3.79,-1.41 4.8,-1.65 1.59,-0.39 3.96,-0.82 5.68,-0.8l0.06 0.12c0.01,0.02 0.05,0.09 0.06,0.11 0.11,0.24 0.04,0.03 0.13,0.3l0 0.01z"/>
   <path class="fil3" d="M523.18 805.35l-2.51 5.14c-0.44,-0.16 -7.56,-6.68 -8.2,-7.07 0.03,-0.08 0.2,-0.47 0.25,-0.54 1.83,0.05 3.9,0.39 5.61,0.8 1.02,0.24 4.33,1.19 4.86,1.67l-0 0z"/>
   <path class="fil3" d="M523.98 819.59c-0.48,-0.1 -4.76,-1.87 -5.59,-2.2l-5.33 -2.16c-0.19,-0.11 -0.1,-0.05 -0.17,-0.14 0.67,-0.35 7.59,-3.2 7.88,-3.21l3.22 7.71 -0.01 0z"/>
   <path class="fil3" d="M510.8 815.07c-0.09,0.09 -0.02,0.05 -0.15,0.13 -0.07,0.04 -0.07,0.05 -0.17,0.09l-5.23 2.1c-0.91,0.37 -1.83,0.72 -2.76,1.1 -0.75,0.3 -2.13,0.96 -2.82,1.11l3.2 -7.74c0.46,0.07 1.51,0.58 1.98,0.77l3.92 1.63c0.67,0.27 1.35,0.61 2.01,0.82l0.01 -0.01z"/>
   <path class="fil3" d="M532.87 824.11c-0.05,0.22 -2.73,7.07 -3.02,7.45 -0.02,-0.02 -0.04,-0.06 -0.04,-0.05 -0.01,0.02 -0.04,-0.04 -0.04,-0.05 -0.1,-0.16 -0.01,0.01 -0.1,-0.16l-0.39 -0.97c-0.19,-0.46 -0.35,-0.84 -0.55,-1.31 -0.45,-1.09 -3.13,-7.38 -3.25,-7.9l6.94 2.76c0.28,0.11 0.26,0.08 0.45,0.24l-0 -0z"/>
   <path class="fil3" d="M493.78 831.6l-3.04 -7.48c0.25,-0.19 0.62,-0.31 0.93,-0.43l6.48 -2.57c-0.13,0.57 -3.41,8.22 -4.05,9.84l-0.32 0.65 0 -0.01z"/>
   <path class="fil3" d="M510.61 851.96c-1.05,0.4 -6.88,2.86 -7.41,2.92 -0.24,-0.29 -2.8,-6.59 -2.98,-7.26 0.56,0.13 10.25,4.22 10.38,4.34l0.01 0z"/>
   <path class="fil3" d="M520.44 854.88c-0.62,-0.08 -6.19,-2.48 -7.4,-2.92 0.3,-0.23 4.45,-1.91 5.13,-2.18 1.03,-0.41 4.65,-2 5.26,-2.16 -0.13,0.57 -2.76,7 -2.98,7.26l-0.01 0z"/>
   <path class="fil3" d="M511.07 863.39c-1.22,0.13 -4.23,-0.42 -5.39,-0.69 -1.77,-0.41 -3.1,-0.92 -4.66,-1.45 0.12,-0.52 1.74,-4.89 1.94,-5.18 0.28,0.12 2.59,2.32 3.07,2.74l2.04 1.83c0.19,0.17 0.3,0.31 0.5,0.47 0.2,0.17 0.33,0.27 0.52,0.45 0.69,0.68 1.33,1.18 1.99,1.84l-0.01 -0.01z"/>
   <path class="fil3" d="M522.61 861.25c-0.71,0.21 -1.48,0.54 -2.25,0.79 -1.86,0.6 -6.1,1.54 -7.8,1.35l2.51 -2.29c0.19,-0.17 0.31,-0.31 0.5,-0.47 0.35,-0.3 0.66,-0.61 1.02,-0.91 0.35,-0.28 0.69,-0.62 1.02,-0.91 0.34,-0.3 0.72,-0.64 1.01,-0.93 0.39,-0.38 0.61,-0.52 1.01,-0.92 0.19,-0.19 0.83,-0.8 1.05,-0.89 0.19,0.26 1.83,4.65 1.94,5.19l-0.02 -0.01z"/>
   <path class="fil3" d="M489.42 823.85c-0.15,0.33 -3.07,3.38 -3.59,3.99l-2.7 2.94c-0.22,0.26 -0.72,0.82 -0.97,0.99 -0.08,-3.32 1.18,-7.36 2.19,-10.07l5.07 2.15 0 0z"/>
   <path class="fil3" d="M541.48 831.76c-0.32,-0.21 -1.52,-1.57 -1.85,-1.95 -1.27,-1.48 -3.23,-3.42 -4.51,-4.92 -0.28,-0.32 -0.73,-0.69 -0.89,-1.02l5.04 -2.18c0.98,1.73 2.31,7.7 2.2,10.06l0.01 0.01z"/>
   <path class="fil3" d="M502.26 810.9l-10.45 0.13c0.53,-1.05 6.37,-5 7.94,-5.37 0.39,1.16 2.35,4.47 2.5,5.24l0.01 0z"/>
   <path class="fil3" d="M531.83 811.02l-10.45 -0.13c0.19,-0.88 2.1,-4.05 2.5,-5.23 0.87,0.19 3.57,1.87 4.27,2.35 0.69,0.47 3.36,2.42 3.67,3.01l0.01 -0z"/>
   <path class="fil3" d="M539.07 845.04c-0.11,0.54 -0.82,1.84 -1.08,2.33 -0.85,1.59 -2.91,4.83 -4.17,5.94 -0.1,-0.84 0.3,-7.67 0.35,-9.4 0.03,-1.06 -0.29,-0.96 1.79,-0.13 0.69,0.28 2.68,0.94 3.12,1.26l-0.01 0z"/>
   <path class="fil3" d="M489.85 853.29c-1.04,-0.58 -4.94,-6.65 -5.28,-8.25 0.32,-0.22 4.63,-1.9 4.88,-1.88l0.4 10.13 -0 0z"/>
   <path class="fil3" d="M489.87 823.15l-5.18 -2.17c0.32,-1.52 4.06,-7.19 4.92,-7.7l0.26 9.87z"/>
   <path class="fil3" d="M538.94 820.97l-5.15 2.21 0.24 -9.89c0.54,0.31 2.3,2.86 2.75,3.58 0.46,0.73 1.99,3.26 2.16,4.1l0 0z"/>
   <path class="fil3" d="M539.44 844.26c-0.41,-0.06 -4.34,-1.6 -4.92,-1.87 0.09,-0.31 1.35,-1.48 1.67,-1.8l3.48 -3.52c0.65,-0.67 1.22,-1.13 1.74,-1.73 0.08,1.66 -0.74,5.15 -1.27,6.87 -0.21,0.69 -0.55,1.43 -0.7,2.06l0 -0.01z"/>
   <path class="fil3" d="M500.29 860.89c-0.89,-0.2 -3.39,-1.69 -4.15,-2.18 -0.7,-0.46 -3.36,-2.29 -3.62,-2.76l9.6 -0.07 -1.83 5.01z"/>
   <path class="fil3" d="M523.35 860.89l-1.86 -5.01 9.59 0.05c-0.24,0.73 -6.2,4.58 -7.73,4.96l-0 0z"/>
   <path class="fil3" d="M489.16 842.36c-0.54,0.26 -4.52,1.85 -4.96,1.89 -0.31,-1.18 -0.84,-2.25 -1.29,-4.2 -0.26,-1.14 -0.75,-3.54 -0.69,-4.72 0.99,1.07 2.37,2.34 3.47,3.46l3.47 3.56 0 0.01z"/>
  </g>
  <g id="_2980124214640">
   <path class="fil3" d="M838.44 475.82c3.27,1.2 7.61,3.05 11.04,4.44 0.87,0.36 1.21,0.33 1.43,0.83l4.53 10.92c0.39,0.96 0.43,0.71 0.02,1.69 -0.89,2.13 -1.67,4.2 -2.54,6.31 -0.87,2.09 -1.7,4.17 -2.54,6.32 -0.21,0.55 -0.81,0.61 -1.33,0.83l-4.72 1.97c-0.91,0.39 -5.75,2.56 -6.42,2.34 -2.14,-0.7 -8.31,-3.33 -10.99,-4.47 -0.97,-0.41 -0.72,-0.19 -1.11,-1.14 -0.87,-2.11 -1.72,-4.24 -2.54,-6.32 -0.84,-2.13 -1.72,-4.2 -2.55,-6.31 -0.22,-0.56 0.15,-1.12 0.36,-1.62l3.91 -9.39c0.87,-2.07 0.17,-1.23 3.9,-2.78l7.87 -3.16c0.44,-0.18 1.22,-0.64 1.69,-0.47l-0.01 0.01z"/>
   <path class="fil4" d="M837.44 523.51c-0.66,-0.67 -1.3,-1.16 -1.99,-1.84 -0.19,-0.18 -0.32,-0.28 -0.52,-0.45 -0.19,-0.16 -0.31,-0.3 -0.5,-0.47l-2.04 -1.83c-0.48,-0.41 -2.79,-2.61 -3.07,-2.74 -0.2,0.29 -1.82,4.66 -1.94,5.18 1.56,0.53 2.89,1.04 4.66,1.45 1.17,0.27 4.18,0.82 5.39,0.69l0.01 0.01zm11.54 -2.14c-0.11,-0.53 -1.75,-4.92 -1.94,-5.19 -0.22,0.1 -0.86,0.71 -1.05,0.89 -0.4,0.4 -0.62,0.54 -1.01,0.92 -0.29,0.29 -0.67,0.63 -1.01,0.93 -0.33,0.29 -0.67,0.63 -1.02,0.91 -0.36,0.3 -0.67,0.61 -1.02,0.91 -0.19,0.16 -0.31,0.31 -0.5,0.47l-2.51 2.29c1.7,0.19 5.94,-0.75 7.8,-1.35 0.78,-0.25 1.54,-0.57 2.25,-0.79l0.02 0.01zm-20.5 -5.37l-9.6 0.07c0.26,0.48 2.92,2.3 3.62,2.76 0.76,0.49 3.26,1.98 4.15,2.18l1.83 -5.01zm21.23 5.02c1.54,-0.38 7.5,-4.23 7.73,-4.96l-9.59 -0.05 1.86 5.01 0 0zm-3.43 -5.3c-0.4,-0.24 -1.47,-0.62 -1.97,-0.82 -0.9,-0.35 -5.61,-2.31 -6.13,-2.31 -0.53,0 -5.25,1.96 -6.13,2.31 -0.52,0.21 -1.53,0.55 -1.96,0.81 0.19,0.3 1.61,1.49 1.98,1.85l5.07 4.59c0.26,0.25 0.74,0.71 1.05,0.9 0.41,-0.24 0.68,-0.56 1.04,-0.91 0.31,-0.31 0.65,-0.59 1.02,-0.92 0.68,-0.61 1.35,-1.23 2.04,-1.83l2.03 -1.84c0.44,-0.44 1.72,-1.44 1.98,-1.85l-0.02 0.02zm-9.31 -3.63c-0.13,-0.12 -9.82,-4.21 -10.38,-4.34 0.17,0.67 2.74,6.96 2.98,7.26 0.52,-0.06 6.36,-2.52 7.41,-2.92l-0.01 0zm9.83 2.92c0.23,-0.26 2.85,-6.69 2.98,-7.26 -0.61,0.16 -4.22,1.74 -5.26,2.16 -0.68,0.27 -4.83,1.95 -5.13,2.18 1.21,0.44 6.78,2.84 7.4,2.92l0.01 -0zm-30.98 -11.72c-0.25,-0.02 -4.56,1.66 -4.88,1.88 0.34,1.6 4.25,7.67 5.28,8.25l-0.4 -10.13 0 0zm49.61 1.88c-0.44,-0.31 -2.43,-0.98 -3.12,-1.26 -2.08,-0.83 -1.76,-0.94 -1.79,0.13 -0.05,1.73 -0.44,8.56 -0.35,9.4 1.26,-1.11 3.32,-4.35 4.17,-5.94 0.26,-0.49 0.97,-1.79 1.08,-2.33l0.01 0zm-36.75 10.05c-0.05,-0.47 -2.07,-5.24 -2.52,-6.39 -0.59,-1.53 -0.44,-1.47 -1.2,-1.78 -2.12,-0.86 -6.51,-2.82 -8.31,-3.44 -0.13,1.37 0.14,3.87 0.19,5.35 0.06,1.53 0.31,4.01 0.16,5.43 1.13,0.85 0.26,0.91 2.27,0.89l9.42 -0.06 -0.01 0zm30.68 -1.75c0.06,-1.45 0.44,-9.26 0.37,-9.86 -2.11,0.74 -6,2.52 -8.37,3.46 -0.6,0.24 -0.5,0.2 -0.74,0.79l-2.13 5.28c-0.2,0.48 -0.75,1.69 -0.8,2.09l8.94 0.06c2.19,0.02 1.57,0.19 2.41,-0.61 0.49,-0.46 0.29,-0.45 0.32,-1.2l0 -0.01zm0.36 -10.75c0.06,-0.62 -1.36,-3.66 -1.67,-4.44 -0.25,-0.63 -1.61,-4 -1.86,-4.3l-4.89 12.27 8.42 -3.52 -0 -0.01zm-39.57 -8.73c-0.2,0.26 -2.44,5.75 -2.75,6.51 -0.88,2.21 -1.09,2.13 -0.21,2.48l3.65 1.51c0.73,0.31 1.37,0.57 2.1,0.88 0.59,0.25 1.54,0.7 2.17,0.85l-4.96 -12.22 0 -0.02zm45.9 3.21l-3.48 3.52c-0.31,0.31 -1.57,1.48 -1.67,1.8 0.58,0.27 4.51,1.81 4.92,1.87 0.15,-0.63 0.49,-1.37 0.7,-2.06 0.53,-1.72 1.35,-5.21 1.27,-6.87 -0.53,0.61 -1.09,1.07 -1.74,1.73l-0 0.01zm-53.99 1.74c-1.1,-1.13 -2.48,-2.39 -3.47,-3.46 -0.06,1.18 0.43,3.58 0.69,4.72 0.44,1.94 0.98,3.02 1.29,4.2 0.44,-0.04 4.42,-1.63 4.96,-1.89l-3.47 -3.56 -0 -0.01zm3.97 2.85c0.44,-1.3 2.96,-7.12 3.55,-8.54 0.22,-0.54 0.04,-0.69 -0.16,-1.19 -0.37,-0.87 -2.78,-7.11 -3.05,-7.44l-3.96 4.28c-0.6,0.7 -3.78,4.04 -3.87,4.26 -0.1,0.23 -0.09,0.7 -0.03,0.98 0.05,0.24 0.27,0.4 0.46,0.57 1.35,1.25 6.55,6.83 7.07,7.08l-0.01 0zm22.42 -25.96c-0.46,-0.17 -1.25,0.29 -1.69,0.47l-7.87 3.16c-3.73,1.55 -3.02,0.71 -3.9,2.78l-3.91 9.39c-0.21,0.5 -0.58,1.06 -0.36,1.62 0.83,2.11 1.71,4.18 2.55,6.31 0.82,2.08 1.67,4.21 2.54,6.32 0.4,0.95 0.15,0.73 1.11,1.14 2.67,1.15 8.85,3.77 10.99,4.47 0.67,0.22 5.51,-1.96 6.42,-2.34l4.72 -1.97c0.52,-0.22 1.12,-0.28 1.33,-0.83 0.84,-2.15 1.67,-4.22 2.54,-6.32 0.87,-2.11 1.65,-4.19 2.54,-6.31 0.41,-0.98 0.37,-0.73 -0.02,-1.69l-4.53 -10.92c-0.22,-0.5 -0.56,-0.47 -1.43,-0.83 -3.43,-1.39 -7.77,-3.24 -11.04,-4.44l0.01 -0.01zm21.96 25.94c0.6,-0.48 5.13,-5.18 6.08,-6.14 0.35,-0.35 0.64,-0.68 1,-1.01 0.31,-0.29 0.37,-0.22 0.4,-0.63 0.02,-0.28 0.05,-0.66 -0.08,-0.89l-1.96 -2.15c-0.12,-0.14 -5.58,-6.17 -5.85,-6.33 -0.23,0.29 -2.26,5.46 -2.67,6.52 -0.41,1.04 -0.78,1.5 -0.54,2.09 0.43,1.05 3.37,8.3 3.61,8.53l0.01 0.01zm-49.7 -19.94c-1,2.71 -2.27,6.74 -2.19,10.07 0.25,-0.17 0.74,-0.73 0.97,-0.99l2.7 -2.94c0.52,-0.61 3.44,-3.66 3.59,-3.99l-5.07 -2.15 0 -0zm57.13 10.06c0.1,-2.36 -1.22,-8.33 -2.2,-10.06l-5.04 2.18c0.16,0.33 0.61,0.69 0.89,1.02 1.28,1.5 3.24,3.43 4.51,4.92 0.33,0.39 1.52,1.74 1.85,1.95l-0.01 -0.01zm-47.69 -0.16l0.32 -0.65c0.64,-1.61 3.93,-9.27 4.05,-9.84l-6.48 2.57c-0.31,0.12 -0.68,0.24 -0.93,0.43l3.04 7.48 0 0.01zm39.09 -7.49c-0.19,-0.15 -0.18,-0.13 -0.45,-0.24l-6.94 -2.76c0.13,0.52 2.8,6.81 3.25,7.9 0.19,0.46 0.36,0.85 0.55,1.31l0.39 0.97c0.09,0.17 0,0 0.1,0.16 0.01,0.01 0.04,0.07 0.04,0.05 0,-0.01 0.03,0.04 0.04,0.05 0.29,-0.38 2.96,-7.23 3.02,-7.45l0 0zm-43.26 -10.83c-0.86,0.51 -4.6,6.18 -4.92,7.7l5.18 2.17 -0.26 -9.87zm49.33 7.69c-0.17,-0.84 -1.7,-3.37 -2.16,-4.1 -0.45,-0.72 -2.21,-3.27 -2.75,-3.58l-0.24 9.89 5.15 -2.21 0 -0zm-28.15 -5.89c-0.66,-0.21 -1.33,-0.55 -2.01,-0.82l-3.92 -1.63c-0.47,-0.19 -1.52,-0.7 -1.98,-0.77l-3.2 7.74c0.69,-0.15 2.07,-0.81 2.82,-1.11 0.93,-0.38 1.84,-0.73 2.76,-1.1l5.23 -2.1c0.09,-0.04 0.1,-0.04 0.17,-0.09 0.12,-0.08 0.06,-0.03 0.15,-0.13l-0.01 0.01zm9.96 -3.2c-0.29,0.01 -7.22,2.86 -7.88,3.21 0.07,0.09 -0.02,0.03 0.17,0.14l5.33 2.16c0.83,0.33 5.11,2.1 5.59,2.2l-3.22 -7.71 0.01 -0zm-30.1 11.35c0.38,-0.06 5.43,-2.15 6.22,-2.46 0.7,-0.29 1.65,-0.52 1.86,-0.95l3.34 -8.11c-2.39,-0.07 -6.18,0.05 -8.78,0.1 -0.48,0.01 -0.97,0.02 -1.45,0.02 -1.37,0.01 -1.48,0.13 -1.45,1.51l0.26 9.9 0 -0.01zm42.56 -8.61c0.06,-2.64 0.33,-2.78 -1.58,-2.8 -3.06,-0.04 -7.3,-0.2 -10.07,-0.12 0.16,0.59 2.12,5.13 2.54,6.17 0.86,2.18 0.61,2.07 1.75,2.52 1.36,0.53 6.62,2.76 7.14,2.83l0.23 -8.61 -0.01 0.01zm-13.08 -3.37c-0.22,-0.4 -1.68,-1.53 -2.07,-1.9 -0.69,-0.65 -1.35,-1.16 -2.06,-1.81l-4.19 -3.62 -3.15 2.73c-0.34,0.3 -0.72,0.59 -1.04,0.89 -0.72,0.67 -1.36,1.17 -2.09,1.85 -0.35,0.33 -1.88,1.53 -2.04,1.86 1.18,0.34 7.8,3.37 8.31,3.38 0.27,0 3.64,-1.46 4.2,-1.69l4.12 -1.69 0.01 0zm-17.87 -0.34c-0.15,-0.77 -2.12,-4.08 -2.5,-5.24 -1.57,0.37 -7.41,4.33 -7.94,5.37l10.45 -0.13 -0.01 0zm29.57 0.13c-0.31,-0.59 -2.98,-2.54 -3.67,-3.01 -0.7,-0.48 -3.41,-2.16 -4.27,-2.35 -0.4,1.19 -2.31,4.35 -2.5,5.23l10.45 0.13 -0.01 0zm-24.7 -4.09c0.7,-0.57 1.32,-1.19 2.02,-1.76 0.49,-0.4 1.61,-1.5 2.04,-1.74 -0.09,-0.27 -0.02,-0.06 -0.13,-0.3 -0.01,-0.02 -0.05,-0.1 -0.06,-0.11l-0.06 -0.12c-1.72,-0.02 -4.09,0.42 -5.68,0.8 -1.01,0.24 -4.27,1.17 -4.8,1.65 0.17,0.49 2.39,4.98 2.58,5.14 0.61,-0.41 3.21,-2.84 4.09,-3.55l0 -0.01zm16.05 -1.59c-0.53,-0.47 -3.83,-1.43 -4.86,-1.67 -1.71,-0.41 -3.78,-0.75 -5.61,-0.8 -0.05,0.07 -0.22,0.46 -0.25,0.54 0.64,0.39 7.77,6.91 8.2,7.07l2.51 -5.14 0 0zm19.08 29.63c-0.43,6.31 -2.6,12.2 -6.21,16.89 -0.86,1.11 -2.6,3.16 -3.63,4.03 -3.17,2.68 -5.21,4.29 -9.37,6.01 -3.8,1.56 -8.38,2.57 -13,2.24 -7.03,-0.52 -13.3,-3.38 -18.28,-7.75 -1.02,-0.89 -1.49,-1.48 -2.37,-2.38 -2.07,-2.13 -4.59,-5.98 -5.91,-9.47 -3.23,-8.61 -2.85,-17.17 1.16,-25.37 1.38,-2.82 2.82,-4.65 4.72,-6.87 1.02,-1.2 2.67,-2.69 3.96,-3.69 9.25,-7.2 21.64,-8.66 32.22,-3.06 4.16,2.2 7.64,5.1 10.44,8.81 4.34,5.77 6.79,13.08 6.27,20.62l-0.01 -0.02z"/>
   <path class="fil3" d="M860.41 501.76c-0.24,-0.22 -3.18,-7.48 -3.61,-8.53 -0.25,-0.6 0.13,-1.05 0.54,-2.09 0.42,-1.06 2.44,-6.24 2.67,-6.52 0.26,0.16 5.72,6.19 5.85,6.33l1.96 2.15c0.13,0.23 0.1,0.61 0.08,0.89 -0.03,0.41 -0.08,0.35 -0.4,0.63 -0.37,0.33 -0.66,0.66 -1,1.01 -0.94,0.96 -5.48,5.66 -6.08,6.14l-0.01 -0.01z"/>
   <path class="fil3" d="M816.02 501.78c-0.52,-0.25 -5.72,-5.83 -7.07,-7.08 -0.19,-0.17 -0.41,-0.33 -0.46,-0.57 -0.06,-0.27 -0.07,-0.74 0.03,-0.98 0.1,-0.22 3.27,-3.56 3.87,-4.26l3.96 -4.28c0.27,0.34 2.69,6.57 3.05,7.44 0.2,0.49 0.39,0.65 0.16,1.19 -0.59,1.42 -3.1,7.24 -3.55,8.54l0.01 0z"/>
   <path class="fil3" d="M828.68 515.21l-9.42 0.06c-2.01,0.02 -1.14,-0.04 -2.27,-0.89 0.15,-1.42 -0.1,-3.9 -0.16,-5.43 -0.05,-1.48 -0.32,-3.98 -0.19,-5.35 1.8,0.62 6.2,2.58 8.31,3.44 0.76,0.31 0.61,0.26 1.2,1.78 0.45,1.16 2.47,5.93 2.52,6.39l0.01 0z"/>
   <path class="fil3" d="M847.69 515.21c0.05,-0.4 0.6,-1.6 0.8,-2.09l2.13 -5.28c0.24,-0.59 0.15,-0.55 0.74,-0.79 2.37,-0.94 6.26,-2.72 8.37,-3.46 0.07,0.6 -0.31,8.41 -0.37,9.86 -0.03,0.75 0.17,0.74 -0.32,1.2 -0.84,0.79 -0.22,0.62 -2.41,0.61l-8.94 -0.06 0 0.01z"/>
   <path class="fil3" d="M859.35 483.34c-0.52,-0.07 -5.78,-2.3 -7.14,-2.83 -1.14,-0.45 -0.89,-0.35 -1.75,-2.52 -0.41,-1.04 -2.38,-5.58 -2.54,-6.17 2.77,-0.09 7,0.08 10.07,0.12 1.91,0.02 1.64,0.16 1.58,2.8l-0.23 8.61 0.01 -0.01z"/>
   <path class="fil3" d="M817.02 483.35l-0.26 -9.9c-0.03,-1.38 0.08,-1.5 1.45,-1.51 0.48,-0.01 0.96,-0.02 1.45,-0.02 2.6,-0.05 6.39,-0.17 8.78,-0.1l-3.34 8.11c-0.21,0.43 -1.17,0.67 -1.86,0.95 -0.79,0.32 -5.84,2.41 -6.22,2.46l0 0.01z"/>
   <path class="fil3" d="M846.5 471.36l-4.12 1.69c-0.56,0.24 -3.93,1.69 -4.2,1.69 -0.52,0 -7.13,-3.04 -8.31,-3.38 0.16,-0.33 1.68,-1.54 2.04,-1.86 0.73,-0.68 1.37,-1.18 2.09,-1.85 0.33,-0.3 0.7,-0.6 1.04,-0.89l3.15 -2.73 4.19 3.62c0.71,0.66 1.37,1.17 2.06,1.81 0.39,0.37 1.86,1.5 2.07,1.9l-0.01 0z"/>
   <path class="fil3" d="M846.28 515.71c-0.25,0.41 -1.54,1.41 -1.98,1.85l-2.03 1.84c-0.69,0.6 -1.36,1.21 -2.04,1.83 -0.37,0.33 -0.7,0.61 -1.02,0.92 -0.36,0.35 -0.63,0.67 -1.04,0.91 -0.31,-0.19 -0.8,-0.65 -1.05,-0.9l-5.07 -4.59c-0.37,-0.36 -1.79,-1.55 -1.98,-1.85 0.44,-0.26 1.44,-0.6 1.96,-0.81 0.88,-0.35 5.61,-2.31 6.13,-2.31 0.52,0 5.23,1.96 6.13,2.31 0.5,0.2 1.57,0.57 1.97,0.82l0.02 -0.02z"/>
   <path class="fil3" d="M825.09 506.2c-0.63,-0.15 -1.57,-0.6 -2.17,-0.85 -0.73,-0.31 -1.37,-0.57 -2.1,-0.88l-3.65 -1.51c-0.88,-0.34 -0.67,-0.27 0.21,-2.48 0.3,-0.76 2.55,-6.24 2.75,-6.51l4.96 12.22 0 0.02z"/>
   <path class="fil3" d="M859.72 502.71l-8.42 3.52 4.89 -12.27c0.24,0.3 1.61,3.67 1.86,4.3 0.31,0.79 1.73,3.83 1.67,4.44l0 0.01z"/>
   <path class="fil3" d="M837.55 463.55c-0.43,0.24 -1.54,1.35 -2.04,1.74 -0.7,0.57 -1.31,1.2 -2.02,1.76 -0.88,0.71 -3.48,3.15 -4.09,3.55 -0.19,-0.16 -2.41,-4.65 -2.58,-5.14 0.53,-0.48 3.79,-1.41 4.8,-1.65 1.59,-0.39 3.96,-0.82 5.68,-0.8l0.06 0.12c0.01,0.02 0.05,0.09 0.06,0.11 0.11,0.24 0.04,0.03 0.13,0.3l0 0.01z"/>
   <path class="fil3" d="M849.54 465.47l-2.51 5.14c-0.44,-0.16 -7.56,-6.68 -8.2,-7.07 0.03,-0.08 0.2,-0.47 0.25,-0.54 1.83,0.05 3.9,0.39 5.61,0.8 1.02,0.24 4.33,1.19 4.86,1.67l-0 0z"/>
   <path class="fil3" d="M850.33 479.71c-0.48,-0.1 -4.76,-1.87 -5.59,-2.2l-5.33 -2.16c-0.19,-0.11 -0.1,-0.05 -0.17,-0.14 0.67,-0.35 7.59,-3.2 7.88,-3.21l3.22 7.71 -0.01 0z"/>
   <path class="fil3" d="M837.16 475.2c-0.09,0.09 -0.02,0.05 -0.15,0.13 -0.07,0.04 -0.07,0.05 -0.17,0.09l-5.23 2.1c-0.91,0.37 -1.83,0.72 -2.76,1.1 -0.75,0.3 -2.13,0.96 -2.82,1.11l3.2 -7.74c0.46,0.07 1.51,0.58 1.98,0.77l3.92 1.63c0.67,0.27 1.35,0.61 2.01,0.82l0.01 -0.01z"/>
   <path class="fil3" d="M859.24 484.23c-0.05,0.22 -2.73,7.07 -3.02,7.45 -0.02,-0.02 -0.04,-0.06 -0.04,-0.05 -0.01,0.02 -0.04,-0.04 -0.04,-0.05 -0.1,-0.16 -0.01,0.01 -0.1,-0.16l-0.39 -0.97c-0.19,-0.46 -0.35,-0.84 -0.55,-1.31 -0.45,-1.09 -3.13,-7.38 -3.25,-7.9l6.94 2.76c0.28,0.11 0.26,0.08 0.45,0.24l-0 -0z"/>
   <path class="fil3" d="M820.15 491.72l-3.04 -7.48c0.25,-0.19 0.62,-0.31 0.93,-0.43l6.48 -2.57c-0.13,0.57 -3.41,8.22 -4.05,9.84l-0.32 0.65 0 -0.01z"/>
   <path class="fil3" d="M836.96 512.08c-1.05,0.4 -6.88,2.86 -7.41,2.92 -0.24,-0.29 -2.8,-6.59 -2.98,-7.26 0.56,0.13 10.25,4.22 10.38,4.34l0.01 0z"/>
   <path class="fil3" d="M846.8 515c-0.62,-0.08 -6.19,-2.48 -7.4,-2.92 0.3,-0.23 4.45,-1.91 5.13,-2.18 1.03,-0.41 4.65,-2 5.26,-2.16 -0.13,0.57 -2.76,7 -2.98,7.26l-0.01 0z"/>
   <path class="fil3" d="M837.44 523.51c-1.22,0.13 -4.23,-0.42 -5.39,-0.69 -1.77,-0.41 -3.1,-0.92 -4.66,-1.45 0.12,-0.52 1.74,-4.89 1.94,-5.18 0.28,0.12 2.59,2.32 3.07,2.74l2.04 1.83c0.19,0.17 0.3,0.31 0.5,0.47 0.2,0.17 0.33,0.27 0.52,0.45 0.69,0.68 1.33,1.18 1.99,1.84l-0.01 -0.01z"/>
   <path class="fil3" d="M848.98 521.37c-0.71,0.21 -1.48,0.54 -2.25,0.79 -1.86,0.6 -6.1,1.54 -7.8,1.35l2.51 -2.29c0.19,-0.17 0.31,-0.31 0.5,-0.47 0.35,-0.3 0.66,-0.61 1.02,-0.91 0.35,-0.28 0.69,-0.62 1.02,-0.91 0.34,-0.3 0.72,-0.64 1.01,-0.93 0.39,-0.38 0.61,-0.52 1.01,-0.92 0.19,-0.19 0.83,-0.8 1.05,-0.89 0.19,0.26 1.83,4.65 1.94,5.19l-0.02 -0.01z"/>
   <path class="fil3" d="M815.78 483.97c-0.15,0.33 -3.07,3.38 -3.59,3.99l-2.7 2.94c-0.22,0.26 -0.72,0.82 -0.97,0.99 -0.08,-3.32 1.18,-7.36 2.19,-10.07l5.07 2.15 0 0z"/>
   <path class="fil3" d="M867.83 491.88c-0.32,-0.21 -1.52,-1.57 -1.85,-1.95 -1.27,-1.48 -3.23,-3.42 -4.51,-4.92 -0.28,-0.32 -0.73,-0.69 -0.89,-1.02l5.04 -2.18c0.98,1.73 2.31,7.7 2.2,10.06l0.01 0.01z"/>
   <path class="fil3" d="M828.63 471.02l-10.45 0.13c0.53,-1.05 6.37,-5 7.94,-5.37 0.39,1.16 2.35,4.47 2.5,5.24l0.01 0z"/>
   <path class="fil3" d="M858.2 471.15l-10.45 -0.13c0.19,-0.88 2.1,-4.05 2.5,-5.23 0.87,0.19 3.57,1.87 4.27,2.35 0.69,0.47 3.36,2.42 3.67,3.01l0.01 -0z"/>
   <path class="fil3" d="M865.43 505.16c-0.11,0.54 -0.82,1.84 -1.08,2.33 -0.85,1.59 -2.91,4.83 -4.17,5.94 -0.1,-0.84 0.3,-7.67 0.35,-9.4 0.03,-1.06 -0.29,-0.96 1.79,-0.13 0.69,0.28 2.68,0.94 3.12,1.26l-0.01 0z"/>
   <path class="fil3" d="M816.22 513.41c-1.04,-0.58 -4.94,-6.65 -5.28,-8.25 0.32,-0.22 4.63,-1.9 4.88,-1.88l0.4 10.13 -0 0z"/>
   <path class="fil3" d="M816.24 483.28l-5.18 -2.17c0.32,-1.52 4.06,-7.19 4.92,-7.7l0.26 9.87z"/>
   <path class="fil3" d="M865.31 481.09l-5.15 2.21 0.24 -9.89c0.54,0.31 2.3,2.86 2.75,3.58 0.46,0.73 1.99,3.26 2.16,4.1l0 0z"/>
   <path class="fil3" d="M865.81 504.38c-0.41,-0.06 -4.34,-1.6 -4.92,-1.87 0.09,-0.31 1.35,-1.48 1.67,-1.8l3.48 -3.52c0.65,-0.67 1.22,-1.13 1.74,-1.73 0.08,1.66 -0.74,5.15 -1.27,6.87 -0.21,0.69 -0.55,1.43 -0.7,2.06l0 -0.01z"/>
   <path class="fil3" d="M826.65 521.01c-0.89,-0.2 -3.39,-1.69 -4.15,-2.18 -0.7,-0.46 -3.36,-2.29 -3.62,-2.76l9.6 -0.07 -1.83 5.01z"/>
   <path class="fil3" d="M849.7 521.02l-1.86 -5.01 9.59 0.05c-0.24,0.73 -6.2,4.58 -7.73,4.96l-0 0z"/>
   <path class="fil3" d="M815.52 502.48c-0.54,0.26 -4.52,1.85 -4.96,1.89 -0.31,-1.18 -0.84,-2.25 -1.29,-4.2 -0.26,-1.14 -0.75,-3.54 -0.69,-4.72 0.99,1.07 2.37,2.34 3.47,3.46l3.47 3.56 0 0.01z"/>
  </g>
  <g id="_2980124796640">
   <path class="fil3" d="M548.07 526.03c2.09,0.76 4.87,1.95 7.07,2.85 0.56,0.22 0.78,0.2 0.92,0.53l2.9 7c0.25,0.61 0.28,0.46 0.01,1.08 -0.57,1.36 -1.07,2.69 -1.63,4.04 -0.55,1.34 -1.09,2.67 -1.62,4.05 -0.14,0.35 -0.52,0.39 -0.85,0.54l-3.02 1.26c-0.59,0.24 -3.68,1.64 -4.11,1.5 -1.37,-0.45 -5.33,-2.13 -7.04,-2.86 -0.62,-0.27 -0.46,-0.13 -0.71,-0.74 -0.56,-1.35 -1.1,-2.71 -1.63,-4.04 -0.54,-1.37 -1.1,-2.69 -1.63,-4.04 -0.14,-0.36 0.1,-0.72 0.23,-1.04l2.5 -6.01c0.56,-1.33 0.11,-0.79 2.5,-1.78l5.04 -2.03c0.28,-0.11 0.78,-0.41 1.08,-0.3l-0.02 -0.01z"/>
   <path class="fil4" d="M547.43 556.58c-0.42,-0.43 -0.83,-0.74 -1.28,-1.18 -0.12,-0.12 -0.2,-0.18 -0.33,-0.29 -0.12,-0.1 -0.19,-0.19 -0.31,-0.3l-1.31 -1.17c-0.31,-0.26 -1.79,-1.67 -1.96,-1.75 -0.13,0.19 -1.17,2.98 -1.24,3.32 1,0.34 1.85,0.67 2.99,0.93 0.74,0.17 2.68,0.52 3.45,0.44l-0 0zm7.4 -1.37c-0.07,-0.34 -1.12,-3.15 -1.25,-3.32 -0.14,0.06 -0.55,0.45 -0.67,0.57 -0.26,0.26 -0.4,0.35 -0.65,0.59 -0.19,0.19 -0.43,0.4 -0.65,0.59 -0.22,0.19 -0.43,0.4 -0.65,0.58 -0.23,0.19 -0.43,0.39 -0.65,0.59 -0.12,0.1 -0.2,0.19 -0.32,0.3l-1.61 1.46c1.09,0.12 3.81,-0.48 5,-0.86 0.5,-0.16 0.99,-0.37 1.44,-0.5l0 -0zm-13.13 -3.44l-6.15 0.04c0.17,0.31 1.87,1.48 2.32,1.77 0.49,0.31 2.09,1.26 2.66,1.4l1.17 -3.21 0 -0zm13.6 3.21c0.98,-0.24 4.8,-2.7 4.95,-3.17l-6.14 -0.03 1.19 3.2 0 0zm-2.2 -3.39c-0.26,-0.16 -0.94,-0.4 -1.26,-0.53 -0.58,-0.22 -3.59,-1.48 -3.93,-1.48 -0.34,0 -3.36,1.26 -3.93,1.48 -0.34,0.14 -0.98,0.35 -1.26,0.52 0.12,0.19 1.03,0.95 1.26,1.19l3.25 2.94c0.16,0.16 0.47,0.46 0.67,0.58 0.26,-0.15 0.43,-0.35 0.67,-0.58 0.2,-0.2 0.41,-0.38 0.65,-0.59 0.43,-0.39 0.86,-0.78 1.31,-1.17l1.3 -1.18c0.28,-0.28 1.11,-0.92 1.27,-1.19l0 0.01zm-5.96 -2.33c-0.08,-0.07 -6.29,-2.7 -6.65,-2.78 0.11,0.43 1.75,4.46 1.91,4.65 0.33,-0.04 4.07,-1.61 4.74,-1.87zm6.3 1.87c0.15,-0.17 1.82,-4.29 1.91,-4.65 -0.39,0.11 -2.7,1.12 -3.37,1.38 -0.44,0.17 -3.09,1.25 -3.28,1.4 0.78,0.28 4.34,1.82 4.74,1.87l0 -0zm-19.84 -7.5c-0.16,-0.01 -2.92,1.06 -3.13,1.2 0.22,1.02 2.72,4.91 3.39,5.28l-0.26 -6.48zm31.78 1.2c-0.28,-0.2 -1.56,-0.63 -2,-0.81 -1.33,-0.53 -1.13,-0.6 -1.15,0.08 -0.03,1.11 -0.29,5.48 -0.22,6.02 0.81,-0.71 2.13,-2.78 2.67,-3.81 0.17,-0.31 0.62,-1.15 0.69,-1.49l0.01 0.01zm-23.54 6.43c-0.03,-0.3 -1.33,-3.35 -1.62,-4.09 -0.38,-0.98 -0.28,-0.94 -0.77,-1.14 -1.35,-0.55 -4.17,-1.81 -5.33,-2.2 -0.08,0.88 0.09,2.48 0.12,3.43 0.04,0.98 0.2,2.57 0.1,3.48 0.72,0.55 0.17,0.58 1.45,0.57l6.04 -0.04 0.02 -0.01zm19.65 -1.12c0.04,-0.93 0.28,-5.93 0.24,-6.32 -1.35,0.48 -3.84,1.61 -5.36,2.22 -0.39,0.15 -0.32,0.13 -0.48,0.51l-1.36 3.38c-0.13,0.31 -0.48,1.08 -0.51,1.33l5.72 0.04c1.41,0.01 1.01,0.12 1.55,-0.39 0.31,-0.3 0.19,-0.29 0.2,-0.77l-0 -0zm0.23 -6.88c0.04,-0.4 -0.87,-2.35 -1.07,-2.85 -0.16,-0.4 -1.03,-2.56 -1.19,-2.75l-3.13 7.86 5.39 -2.26zm-25.35 -5.59c-0.13,0.17 -1.56,3.68 -1.76,4.17 -0.56,1.42 -0.69,1.37 -0.13,1.59l2.34 0.97c0.46,0.2 0.88,0.37 1.34,0.56 0.38,0.16 0.99,0.45 1.39,0.54l-3.18 -7.83 0 0zm29.4 2.06l-2.23 2.26c-0.2,0.2 -1.01,0.95 -1.07,1.15 0.37,0.17 2.89,1.16 3.15,1.2 0.1,-0.4 0.31,-0.87 0.45,-1.32 0.34,-1.1 0.87,-3.33 0.81,-4.4 -0.33,0.39 -0.7,0.69 -1.11,1.11zm-34.58 1.11c-0.71,-0.72 -1.59,-1.53 -2.22,-2.22 -0.04,0.75 0.28,2.29 0.44,3.02 0.29,1.24 0.63,1.93 0.83,2.69 0.28,-0.03 2.83,-1.04 3.18,-1.21l-2.22 -2.28 -0.01 0zm2.54 1.83c0.28,-0.83 1.89,-4.56 2.27,-5.47 0.15,-0.34 0.03,-0.44 -0.11,-0.76 -0.23,-0.56 -1.78,-4.55 -1.95,-4.77l-2.54 2.74c-0.39,0.44 -2.42,2.59 -2.48,2.72 -0.06,0.15 -0.06,0.45 -0.02,0.63 0.04,0.15 0.17,0.26 0.3,0.37 0.87,0.8 4.19,4.38 4.53,4.54l-0 0zm14.36 -16.63c-0.3,-0.11 -0.8,0.19 -1.08,0.3l-5.04 2.03c-2.39,0.99 -1.94,0.45 -2.5,1.78l-2.5 6.01c-0.13,0.32 -0.37,0.68 -0.23,1.04 0.53,1.35 1.09,2.68 1.63,4.04 0.52,1.33 1.07,2.7 1.63,4.04 0.25,0.61 0.09,0.47 0.71,0.74 1.72,0.73 5.67,2.41 7.04,2.86 0.43,0.14 3.52,-1.26 4.11,-1.5l3.02 -1.26c0.34,-0.14 0.72,-0.18 0.85,-0.54 0.54,-1.38 1.07,-2.7 1.62,-4.05 0.56,-1.35 1.06,-2.69 1.63,-4.04 0.26,-0.63 0.24,-0.47 -0.01,-1.08l-2.9 -7c-0.14,-0.32 -0.35,-0.3 -0.92,-0.53 -2.2,-0.89 -4.98,-2.08 -7.07,-2.85l0.02 0.01zm14.07 16.62c0.39,-0.31 3.29,-3.32 3.89,-3.93 0.22,-0.22 0.41,-0.44 0.64,-0.65 0.2,-0.18 0.24,-0.14 0.26,-0.41 0.02,-0.18 0.03,-0.42 -0.05,-0.57l-1.26 -1.37c-0.08,-0.09 -3.57,-3.95 -3.74,-4.06 -0.15,0.18 -1.44,3.5 -1.71,4.18 -0.26,0.67 -0.5,0.96 -0.34,1.34 0.28,0.67 2.15,5.32 2.31,5.46l-0 0.01zm-31.83 -12.78c-0.65,1.73 -1.45,4.32 -1.4,6.44 0.16,-0.11 0.48,-0.46 0.62,-0.63l1.73 -1.89c0.33,-0.39 2.2,-2.34 2.3,-2.55l-3.24 -1.38 -0 0.01zm36.59 6.44c0.06,-1.51 -0.78,-5.34 -1.41,-6.44l-3.22 1.39c0.1,0.22 0.39,0.45 0.57,0.65 0.82,0.96 2.07,2.2 2.89,3.15 0.21,0.25 0.98,1.11 1.19,1.25l-0.02 0zm-30.55 -0.1l0.21 -0.41c0.41,-1.04 2.51,-5.94 2.59,-6.3l-4.15 1.65c-0.2,0.08 -0.44,0.16 -0.59,0.28l1.94 4.79 0 -0.01zm25.04 -4.8c-0.12,-0.1 -0.11,-0.08 -0.29,-0.15l-4.45 -1.77c0.08,0.33 1.8,4.36 2.08,5.06 0.13,0.3 0.23,0.54 0.35,0.84l0.25 0.62c0.06,0.11 0,0 0.06,0.1 0.01,0.01 0.02,0.04 0.03,0.04 0,-0.01 0.02,0.02 0.03,0.03 0.19,-0.24 1.9,-4.63 1.93,-4.77l0.01 0.01zm-27.71 -6.94c-0.56,0.33 -2.95,3.96 -3.15,4.93l3.31 1.39 -0.16 -6.32zm31.59 4.93c-0.11,-0.54 -1.09,-2.16 -1.38,-2.63 -0.29,-0.46 -1.42,-2.09 -1.76,-2.3l-0.15 6.34 3.3 -1.41 -0.01 0zm-18.03 -3.78c-0.43,-0.14 -0.85,-0.35 -1.28,-0.53l-2.52 -1.04c-0.3,-0.12 -0.97,-0.44 -1.27,-0.49l-2.05 4.96c0.44,-0.09 1.33,-0.51 1.8,-0.7 0.6,-0.24 1.18,-0.47 1.77,-0.71l3.35 -1.35c0.06,-0.02 0.06,-0.03 0.1,-0.06 0.08,-0.05 0.04,-0.02 0.09,-0.08l0.01 -0zm6.38 -2.05c-0.19,0 -4.62,1.83 -5.05,2.06 0.05,0.06 -0.01,0.02 0.11,0.09l3.42 1.38c0.53,0.21 3.27,1.35 3.58,1.41l-2.06 -4.94zm-19.28 7.26c0.24,-0.04 3.48,-1.37 3.98,-1.58 0.45,-0.18 1.06,-0.33 1.19,-0.61l2.14 -5.2c-1.53,-0.04 -3.96,0.04 -5.62,0.07 -0.31,0 -0.62,0.01 -0.93,0.01 -0.88,0.01 -0.95,0.08 -0.93,0.97l0.17 6.34 -0 0zm27.26 -5.52c0.04,-1.69 0.21,-1.78 -1.02,-1.79 -1.96,-0.02 -4.67,-0.13 -6.44,-0.08 0.1,0.38 1.36,3.29 1.62,3.96 0.55,1.39 0.39,1.33 1.12,1.61 0.87,0.34 4.24,1.77 4.57,1.81l0.15 -5.52 0 0.01zm-8.38 -2.16c-0.14,-0.26 -1.07,-0.98 -1.33,-1.22 -0.44,-0.41 -0.86,-0.74 -1.31,-1.16l-2.68 -2.31 -2.02 1.74c-0.22,0.19 -0.46,0.38 -0.67,0.57 -0.46,0.43 -0.87,0.75 -1.34,1.19 -0.22,0.21 -1.2,0.98 -1.3,1.19 0.76,0.22 5,2.16 5.33,2.16 0.18,0 2.33,-0.93 2.69,-1.08l2.64 -1.08 -0.01 0zm-11.45 -0.22c-0.1,-0.49 -1.36,-2.61 -1.61,-3.35 -1,0.24 -4.74,2.77 -5.09,3.44l6.69 -0.09 0.01 0zm18.94 0.08c-0.2,-0.38 -1.91,-1.63 -2.35,-1.93 -0.45,-0.31 -2.18,-1.39 -2.74,-1.51 -0.26,0.76 -1.48,2.79 -1.6,3.35l6.69 0.08 0 0.01zm-15.82 -2.62c0.45,-0.36 0.84,-0.76 1.29,-1.13 0.31,-0.26 1.03,-0.96 1.3,-1.12 -0.06,-0.17 -0.01,-0.04 -0.08,-0.19 0,-0.01 -0.03,-0.06 -0.04,-0.07l-0.04 -0.07c-1.1,-0.02 -2.62,0.26 -3.64,0.51 -0.64,0.16 -2.73,0.75 -3.07,1.06 0.1,0.31 1.53,3.19 1.65,3.29 0.39,-0.26 2.06,-1.82 2.62,-2.28l0.01 -0zm10.28 -1.02c-0.34,-0.3 -2.46,-0.91 -3.11,-1.07 -1.1,-0.26 -2.43,-0.48 -3.6,-0.51 -0.03,0.04 -0.14,0.29 -0.16,0.34 0.41,0.25 4.98,4.43 5.26,4.53l1.61 -3.29 0 0zm12.22 18.98c-0.28,4.04 -1.67,7.81 -3.98,10.82 -0.55,0.72 -1.67,2.02 -2.32,2.58 -2.02,1.72 -3.33,2.75 -6,3.85 -2.43,1 -5.37,1.65 -8.33,1.43 -4.5,-0.33 -8.52,-2.16 -11.71,-4.96 -0.65,-0.57 -0.96,-0.94 -1.52,-1.52 -1.33,-1.36 -2.94,-3.83 -3.78,-6.07 -2.07,-5.51 -1.82,-11 0.74,-16.25 0.88,-1.81 1.8,-2.98 3.02,-4.41 0.65,-0.76 1.71,-1.72 2.54,-2.36 5.93,-4.61 13.86,-5.55 20.63,-1.96 2.66,1.41 4.89,3.27 6.69,5.65 2.78,3.69 4.35,8.38 4.02,13.2z"/>
   <path class="fil3" d="M562.14 542.65c-0.16,-0.15 -2.04,-4.8 -2.31,-5.46 -0.16,-0.38 0.08,-0.67 0.34,-1.34 0.27,-0.69 1.56,-4 1.71,-4.18 0.17,0.1 3.67,3.96 3.74,4.06l1.26 1.37c0.08,0.15 0.06,0.39 0.05,0.57 -0.02,0.27 -0.05,0.22 -0.26,0.41 -0.23,0.21 -0.42,0.43 -0.64,0.65 -0.6,0.61 -3.51,3.63 -3.89,3.93l0 -0.01z"/>
   <path class="fil3" d="M533.7 542.66c-0.33,-0.16 -3.66,-3.73 -4.53,-4.54 -0.12,-0.11 -0.26,-0.21 -0.3,-0.37 -0.04,-0.17 -0.04,-0.48 0.02,-0.63 0.06,-0.14 2.09,-2.28 2.48,-2.72l2.54 -2.74c0.17,0.22 1.72,4.21 1.95,4.77 0.13,0.32 0.25,0.42 0.11,0.76 -0.38,0.91 -1.99,4.64 -2.27,5.47l0 0z"/>
   <path class="fil3" d="M541.81 551.26l-6.04 0.04c-1.29,0.01 -0.73,-0.02 -1.45,-0.57 0.09,-0.91 -0.07,-2.5 -0.1,-3.48 -0.03,-0.95 -0.2,-2.55 -0.12,-3.43 1.16,0.4 3.97,1.65 5.33,2.2 0.49,0.2 0.39,0.16 0.77,1.14 0.29,0.74 1.59,3.8 1.62,4.09l-0.02 0.01z"/>
   <path class="fil3" d="M553.98 551.26c0.03,-0.26 0.39,-1.03 0.51,-1.33l1.36 -3.38c0.15,-0.38 0.09,-0.35 0.48,-0.51 1.52,-0.6 4.01,-1.74 5.36,-2.22 0.05,0.39 -0.2,5.39 -0.24,6.32 -0.02,0.48 0.11,0.48 -0.2,0.77 -0.54,0.5 -0.14,0.39 -1.55,0.39l-5.72 -0.04 0 0z"/>
   <path class="fil3" d="M561.46 530.85c-0.33,-0.05 -3.7,-1.47 -4.57,-1.81 -0.73,-0.29 -0.57,-0.22 -1.12,-1.61 -0.26,-0.67 -1.52,-3.57 -1.62,-3.96 1.77,-0.06 4.48,0.06 6.44,0.08 1.23,0.01 1.05,0.1 1.02,1.79l-0.15 5.52 -0 -0.01z"/>
   <path class="fil3" d="M534.35 530.85l-0.17 -6.34c-0.02,-0.89 0.05,-0.96 0.93,-0.97 0.31,0 0.62,-0.01 0.93,-0.01 1.67,-0.03 4.09,-0.11 5.62,-0.07l-2.14 5.2c-0.13,0.28 -0.74,0.43 -1.19,0.61 -0.5,0.21 -3.74,1.54 -3.98,1.58l0 0z"/>
   <path class="fil3" d="M553.22 523.18l-2.64 1.08c-0.36,0.15 -2.51,1.09 -2.69,1.08 -0.33,0 -4.57,-1.94 -5.33,-2.16 0.1,-0.21 1.08,-0.98 1.3,-1.19 0.47,-0.43 0.88,-0.76 1.34,-1.19 0.21,-0.19 0.45,-0.39 0.67,-0.57l2.02 -1.74 2.68 2.31c0.45,0.42 0.88,0.75 1.31,1.16 0.26,0.24 1.19,0.96 1.33,1.22l0.01 0z"/>
   <path class="fil3" d="M553.09 551.59c-0.16,0.26 -0.98,0.9 -1.27,1.19l-1.3 1.18c-0.44,0.38 -0.87,0.77 -1.31,1.17 -0.24,0.21 -0.45,0.39 -0.65,0.59 -0.24,0.23 -0.41,0.43 -0.67,0.58 -0.2,-0.12 -0.51,-0.42 -0.67,-0.58l-3.25 -2.94c-0.23,-0.24 -1.14,-1 -1.26,-1.19 0.28,-0.17 0.92,-0.39 1.26,-0.52 0.56,-0.23 3.59,-1.48 3.93,-1.48 0.34,0 3.35,1.26 3.93,1.48 0.31,0.13 1,0.37 1.26,0.53l0 -0.01z"/>
   <path class="fil3" d="M539.52 545.49c-0.4,-0.09 -1.01,-0.38 -1.39,-0.54 -0.46,-0.2 -0.88,-0.37 -1.34,-0.56l-2.34 -0.97c-0.56,-0.22 -0.43,-0.17 0.13,-1.59 0.2,-0.48 1.63,-4 1.76,-4.17l3.18 7.83 -0 -0z"/>
   <path class="fil3" d="M561.7 543.26l-5.39 2.26 3.13 -7.86c0.16,0.19 1.03,2.35 1.19,2.75 0.2,0.5 1.11,2.45 1.07,2.85z"/>
   <path class="fil3" d="M547.48 518.17c-0.27,0.16 -0.99,0.86 -1.3,1.12 -0.45,0.37 -0.84,0.77 -1.29,1.13 -0.56,0.45 -2.23,2.01 -2.62,2.28 -0.12,-0.11 -1.55,-2.98 -1.65,-3.29 0.33,-0.31 2.43,-0.9 3.07,-1.06 1.02,-0.25 2.54,-0.53 3.64,-0.51l0.04 0.07c0,0.01 0.03,0.06 0.04,0.07 0.07,0.15 0.03,0.02 0.08,0.19l-0.01 0z"/>
   <path class="fil3" d="M555.18 519.41l-1.61 3.29c-0.28,-0.1 -4.84,-4.28 -5.26,-4.53 0.02,-0.05 0.13,-0.3 0.16,-0.34 1.17,0.03 2.5,0.25 3.6,0.51 0.65,0.16 2.77,0.77 3.11,1.07l0 -0z"/>
   <path class="fil3" d="M555.69 528.53c-0.31,-0.06 -3.05,-1.2 -3.58,-1.41l-3.42 -1.38c-0.12,-0.07 -0.06,-0.03 -0.11,-0.09 0.43,-0.23 4.86,-2.06 5.05,-2.06l2.06 4.94z"/>
   <path class="fil3" d="M547.24 525.63c-0.06,0.06 -0.02,0.03 -0.09,0.08 -0.04,0.03 -0.05,0.03 -0.1,0.06l-3.35 1.35c-0.59,0.24 -1.17,0.46 -1.77,0.71 -0.48,0.19 -1.36,0.61 -1.8,0.7l2.05 -4.96c0.3,0.05 0.97,0.37 1.27,0.49l2.52 1.04c0.43,0.17 0.86,0.39 1.28,0.53l-0.01 0z"/>
   <path class="fil3" d="M561.39 531.42c-0.03,0.14 -1.75,4.53 -1.93,4.77 -0.01,-0.01 -0.02,-0.04 -0.03,-0.03 0,0.01 -0.02,-0.03 -0.03,-0.04 -0.07,-0.1 -0.01,0.01 -0.06,-0.1l-0.25 -0.62c-0.12,-0.3 -0.22,-0.54 -0.35,-0.84 -0.29,-0.7 -2,-4.73 -2.08,-5.06l4.45 1.77c0.17,0.07 0.17,0.06 0.29,0.15l-0.01 -0.01z"/>
   <path class="fil3" d="M536.35 536.22l-1.94 -4.79c0.16,-0.12 0.4,-0.2 0.59,-0.28l4.15 -1.65c-0.08,0.36 -2.18,5.26 -2.59,6.3l-0.21 0.41 0 0.01z"/>
   <path class="fil3" d="M547.13 549.26c-0.67,0.26 -4.41,1.83 -4.74,1.87 -0.15,-0.19 -1.8,-4.22 -1.91,-4.65 0.36,0.08 6.57,2.7 6.65,2.78z"/>
   <path class="fil3" d="M553.42 551.13c-0.4,-0.05 -3.96,-1.59 -4.74,-1.87 0.19,-0.15 2.85,-1.22 3.28,-1.4 0.66,-0.26 2.98,-1.28 3.37,-1.38 -0.09,0.37 -1.76,4.48 -1.91,4.65l0 0z"/>
   <path class="fil3" d="M547.43 556.58c-0.78,0.08 -2.71,-0.27 -3.45,-0.44 -1.13,-0.26 -1.98,-0.59 -2.99,-0.93 0.08,-0.33 1.11,-3.13 1.24,-3.32 0.18,0.08 1.66,1.49 1.96,1.75l1.31 1.17c0.12,0.11 0.19,0.2 0.31,0.3 0.13,0.11 0.22,0.17 0.33,0.29 0.44,0.43 0.85,0.75 1.28,1.18l0 0z"/>
   <path class="fil3" d="M554.81 555.21c-0.46,0.13 -0.95,0.34 -1.44,0.5 -1.19,0.38 -3.91,0.98 -5,0.86l1.61 -1.46c0.12,-0.11 0.2,-0.2 0.32,-0.3 0.22,-0.19 0.43,-0.4 0.65,-0.59 0.22,-0.18 0.44,-0.4 0.65,-0.58 0.22,-0.19 0.46,-0.41 0.65,-0.59 0.24,-0.24 0.39,-0.33 0.65,-0.59 0.12,-0.12 0.53,-0.51 0.67,-0.57 0.13,0.17 1.17,2.98 1.25,3.32l-0 0z"/>
   <path class="fil3" d="M533.55 531.25c-0.09,0.21 -1.97,2.17 -2.3,2.55l-1.73 1.89c-0.14,0.17 -0.46,0.52 -0.62,0.63 -0.05,-2.13 0.76,-4.71 1.4,-6.44l3.24 1.38 0 -0.01z"/>
   <path class="fil3" d="M566.9 536.31c-0.2,-0.13 -0.97,-1 -1.19,-1.25 -0.81,-0.95 -2.07,-2.19 -2.89,-3.15 -0.18,-0.2 -0.46,-0.44 -0.57,-0.65l3.22 -1.39c0.63,1.11 1.48,4.94 1.41,6.44l0.02 -0z"/>
   <path class="fil3" d="M541.78 522.96l-6.69 0.09c0.34,-0.67 4.08,-3.2 5.09,-3.44 0.25,0.74 1.51,2.86 1.61,3.35l-0.01 0z"/>
   <path class="fil3" d="M560.72 523.04l-6.69 -0.08c0.12,-0.57 1.35,-2.59 1.6,-3.35 0.56,0.12 2.29,1.2 2.74,1.51 0.44,0.3 2.15,1.55 2.35,1.93l0 -0.01z"/>
   <path class="fil3" d="M565.35 544.83c-0.07,0.34 -0.52,1.18 -0.69,1.49 -0.55,1.02 -1.87,3.09 -2.67,3.81 -0.07,-0.54 0.19,-4.91 0.22,-6.02 0.02,-0.68 -0.18,-0.61 1.15,-0.08 0.44,0.18 1.72,0.61 2,0.81l-0.01 -0.01z"/>
   <path class="fil3" d="M533.83 550.11c-0.67,-0.37 -3.17,-4.26 -3.39,-5.28 0.21,-0.14 2.97,-1.22 3.13,-1.2l0.26 6.48z"/>
   <path class="fil3" d="M533.83 530.81l-3.31 -1.39c0.2,-0.98 2.6,-4.61 3.15,-4.93l0.16 6.32z"/>
   <path class="fil3" d="M565.28 529.41l-3.3 1.41 0.15 -6.34c0.35,0.2 1.47,1.83 1.76,2.3 0.29,0.47 1.28,2.09 1.38,2.63l0.01 0z"/>
   <path class="fil3" d="M565.59 544.33c-0.26,-0.04 -2.78,-1.03 -3.15,-1.2 0.06,-0.2 0.87,-0.95 1.07,-1.15l2.23 -2.26c0.42,-0.43 0.78,-0.72 1.11,-1.11 0.06,1.06 -0.47,3.3 -0.81,4.4 -0.14,0.44 -0.35,0.92 -0.45,1.32z"/>
   <path class="fil3" d="M540.52 554.98c-0.57,-0.13 -2.17,-1.08 -2.66,-1.4 -0.45,-0.3 -2.15,-1.46 -2.32,-1.77l6.15 -0.04 -1.17 3.21 0 0z"/>
   <path class="fil3" d="M555.29 554.98l-1.19 -3.2 6.14 0.03c-0.15,0.47 -3.97,2.93 -4.95,3.17l-0 0z"/>
   <path class="fil3" d="M533.39 543.11c-0.35,0.17 -2.9,1.19 -3.18,1.21 -0.2,-0.76 -0.54,-1.44 -0.83,-2.69 -0.17,-0.73 -0.48,-2.27 -0.44,-3.02 0.63,0.69 1.52,1.5 2.22,2.22l2.22 2.28 0.01 0z"/>
  </g>
  <g id="_2980476792832">
   <path class="fil3" d="M797.54 770.68c2.09,0.76 4.87,1.95 7.07,2.85 0.56,0.22 0.78,0.2 0.92,0.53l2.9 7c0.25,0.61 0.28,0.46 0.01,1.08 -0.57,1.36 -1.07,2.69 -1.63,4.04 -0.55,1.34 -1.09,2.67 -1.62,4.05 -0.14,0.35 -0.52,0.39 -0.85,0.54l-3.02 1.26c-0.59,0.24 -3.68,1.64 -4.11,1.5 -1.37,-0.45 -5.33,-2.13 -7.04,-2.86 -0.62,-0.27 -0.46,-0.13 -0.71,-0.74 -0.56,-1.35 -1.1,-2.71 -1.63,-4.04 -0.54,-1.37 -1.1,-2.69 -1.63,-4.04 -0.14,-0.36 0.1,-0.72 0.23,-1.04l2.5 -6.01c0.56,-1.33 0.11,-0.79 2.5,-1.78l5.04 -2.03c0.28,-0.11 0.78,-0.41 1.08,-0.3l-0.02 -0.01z"/>
   <path class="fil4" d="M796.89 801.23c-0.42,-0.43 -0.83,-0.74 -1.28,-1.18 -0.12,-0.12 -0.2,-0.18 -0.33,-0.29 -0.12,-0.1 -0.19,-0.19 -0.31,-0.3l-1.31 -1.17c-0.31,-0.26 -1.79,-1.67 -1.96,-1.75 -0.13,0.19 -1.17,2.98 -1.24,3.32 1,0.34 1.85,0.67 2.99,0.93 0.74,0.17 2.68,0.52 3.45,0.44l-0 0zm7.4 -1.37c-0.07,-0.34 -1.12,-3.15 -1.25,-3.32 -0.14,0.06 -0.55,0.45 -0.67,0.57 -0.26,0.26 -0.4,0.35 -0.65,0.59 -0.19,0.19 -0.43,0.4 -0.65,0.59 -0.22,0.19 -0.43,0.4 -0.65,0.58 -0.23,0.19 -0.43,0.39 -0.65,0.59 -0.12,0.1 -0.2,0.19 -0.32,0.3l-1.61 1.46c1.09,0.12 3.81,-0.48 5,-0.86 0.5,-0.16 0.99,-0.37 1.44,-0.5l0 -0zm-13.13 -3.44l-6.15 0.04c0.17,0.31 1.87,1.48 2.32,1.77 0.49,0.31 2.09,1.26 2.66,1.4l1.17 -3.21 0 -0zm13.6 3.21c0.98,-0.24 4.8,-2.7 4.95,-3.17l-6.14 -0.03 1.19 3.2 0 0zm-2.2 -3.39c-0.26,-0.16 -0.94,-0.4 -1.26,-0.53 -0.58,-0.22 -3.59,-1.48 -3.93,-1.48 -0.34,0 -3.36,1.26 -3.93,1.48 -0.34,0.14 -0.98,0.35 -1.26,0.52 0.12,0.19 1.03,0.95 1.26,1.19l3.25 2.94c0.16,0.16 0.47,0.46 0.67,0.58 0.26,-0.15 0.43,-0.35 0.67,-0.58 0.2,-0.2 0.41,-0.38 0.65,-0.59 0.43,-0.39 0.86,-0.78 1.31,-1.17l1.3 -1.18c0.28,-0.28 1.11,-0.92 1.27,-1.19l0 0.01zm-5.96 -2.33c-0.08,-0.07 -6.29,-2.7 -6.65,-2.78 0.11,0.43 1.75,4.46 1.91,4.65 0.33,-0.04 4.07,-1.61 4.74,-1.87zm6.3 1.87c0.15,-0.17 1.82,-4.29 1.91,-4.65 -0.39,0.11 -2.7,1.12 -3.37,1.38 -0.44,0.17 -3.09,1.25 -3.28,1.4 0.78,0.28 4.34,1.82 4.74,1.87l0 -0zm-19.84 -7.5c-0.16,-0.01 -2.92,1.06 -3.13,1.2 0.22,1.02 2.72,4.91 3.39,5.28l-0.26 -6.48zm31.78 1.2c-0.28,-0.2 -1.56,-0.63 -2,-0.81 -1.33,-0.53 -1.13,-0.6 -1.15,0.08 -0.03,1.11 -0.29,5.48 -0.22,6.02 0.81,-0.71 2.13,-2.78 2.67,-3.81 0.17,-0.31 0.62,-1.15 0.69,-1.49l0.01 0.01zm-23.54 6.43c-0.03,-0.3 -1.33,-3.35 -1.62,-4.09 -0.38,-0.98 -0.28,-0.94 -0.77,-1.14 -1.35,-0.55 -4.17,-1.81 -5.33,-2.2 -0.08,0.88 0.09,2.48 0.12,3.43 0.04,0.98 0.2,2.57 0.1,3.48 0.72,0.55 0.17,0.58 1.45,0.57l6.04 -0.04 0.02 -0.01zm19.65 -1.12c0.04,-0.93 0.28,-5.93 0.24,-6.32 -1.35,0.48 -3.84,1.61 -5.36,2.22 -0.39,0.15 -0.32,0.13 -0.48,0.51l-1.36 3.38c-0.13,0.31 -0.48,1.08 -0.51,1.33l5.72 0.04c1.41,0.01 1.01,0.12 1.55,-0.39 0.31,-0.3 0.19,-0.29 0.2,-0.77l-0 -0zm0.23 -6.88c0.04,-0.4 -0.87,-2.35 -1.07,-2.85 -0.16,-0.4 -1.03,-2.56 -1.19,-2.75l-3.13 7.86 5.39 -2.26zm-25.35 -5.59c-0.13,0.17 -1.56,3.68 -1.76,4.17 -0.56,1.42 -0.69,1.37 -0.13,1.59l2.34 0.97c0.46,0.2 0.88,0.37 1.34,0.56 0.38,0.16 0.99,0.45 1.39,0.54l-3.18 -7.83 0 0zm29.4 2.06l-2.23 2.26c-0.2,0.2 -1.01,0.95 -1.07,1.15 0.37,0.17 2.89,1.16 3.15,1.2 0.1,-0.4 0.31,-0.87 0.45,-1.32 0.34,-1.1 0.87,-3.33 0.81,-4.4 -0.33,0.39 -0.7,0.69 -1.11,1.11zm-34.58 1.11c-0.71,-0.72 -1.59,-1.53 -2.22,-2.22 -0.04,0.75 0.28,2.29 0.44,3.02 0.29,1.24 0.63,1.93 0.83,2.69 0.28,-0.03 2.83,-1.04 3.18,-1.21l-2.22 -2.28 -0.01 0zm2.54 1.83c0.28,-0.83 1.89,-4.56 2.27,-5.47 0.15,-0.34 0.03,-0.44 -0.11,-0.76 -0.23,-0.56 -1.78,-4.55 -1.95,-4.77l-2.54 2.74c-0.39,0.44 -2.42,2.59 -2.48,2.72 -0.06,0.15 -0.06,0.45 -0.02,0.63 0.04,0.15 0.17,0.26 0.3,0.37 0.87,0.8 4.19,4.38 4.53,4.54l-0 0zm14.36 -16.63c-0.3,-0.11 -0.8,0.19 -1.08,0.3l-5.04 2.03c-2.39,0.99 -1.94,0.45 -2.5,1.78l-2.5 6.01c-0.13,0.32 -0.37,0.68 -0.23,1.04 0.53,1.35 1.09,2.68 1.63,4.04 0.52,1.33 1.07,2.7 1.63,4.04 0.25,0.61 0.09,0.47 0.71,0.74 1.72,0.73 5.67,2.41 7.04,2.86 0.43,0.14 3.52,-1.26 4.11,-1.5l3.02 -1.26c0.34,-0.14 0.72,-0.18 0.85,-0.54 0.54,-1.38 1.07,-2.7 1.62,-4.05 0.56,-1.35 1.06,-2.69 1.63,-4.04 0.26,-0.63 0.24,-0.47 -0.01,-1.08l-2.9 -7c-0.14,-0.32 -0.35,-0.3 -0.92,-0.53 -2.2,-0.89 -4.98,-2.08 -7.07,-2.85l0.02 0.01zm14.07 16.62c0.39,-0.31 3.29,-3.32 3.89,-3.93 0.22,-0.22 0.41,-0.44 0.64,-0.65 0.2,-0.18 0.24,-0.14 0.26,-0.41 0.02,-0.18 0.03,-0.42 -0.05,-0.57l-1.26 -1.37c-0.08,-0.09 -3.57,-3.95 -3.74,-4.06 -0.15,0.18 -1.44,3.5 -1.71,4.18 -0.26,0.67 -0.5,0.96 -0.34,1.34 0.28,0.67 2.15,5.32 2.31,5.46l-0 0.01zm-31.83 -12.78c-0.65,1.73 -1.45,4.32 -1.4,6.44 0.16,-0.11 0.48,-0.46 0.62,-0.63l1.73 -1.89c0.33,-0.39 2.2,-2.34 2.3,-2.55l-3.24 -1.38 -0 0.01zm36.59 6.44c0.06,-1.51 -0.78,-5.34 -1.41,-6.44l-3.22 1.39c0.1,0.22 0.39,0.45 0.57,0.65 0.82,0.96 2.07,2.2 2.89,3.15 0.21,0.25 0.98,1.11 1.19,1.25l-0.02 0zm-30.55 -0.1l0.21 -0.41c0.41,-1.04 2.51,-5.94 2.59,-6.3l-4.15 1.65c-0.2,0.08 -0.44,0.16 -0.59,0.28l1.94 4.79 0 -0.01zm25.04 -4.8c-0.12,-0.1 -0.11,-0.08 -0.29,-0.15l-4.45 -1.77c0.08,0.33 1.8,4.36 2.08,5.06 0.13,0.3 0.23,0.54 0.35,0.84l0.25 0.62c0.06,0.11 0,0 0.06,0.1 0.01,0.01 0.02,0.04 0.03,0.04 0,-0.01 0.02,0.02 0.03,0.03 0.19,-0.24 1.9,-4.63 1.93,-4.77l0.01 0.01zm-27.71 -6.94c-0.56,0.33 -2.95,3.96 -3.15,4.93l3.31 1.39 -0.16 -6.32zm31.59 4.93c-0.11,-0.54 -1.09,-2.16 -1.38,-2.63 -0.29,-0.46 -1.42,-2.09 -1.76,-2.3l-0.15 6.34 3.3 -1.41 -0.01 0zm-18.03 -3.78c-0.43,-0.14 -0.85,-0.35 -1.28,-0.53l-2.52 -1.04c-0.3,-0.12 -0.97,-0.44 -1.27,-0.49l-2.05 4.96c0.44,-0.09 1.33,-0.51 1.8,-0.7 0.6,-0.24 1.18,-0.47 1.77,-0.71l3.35 -1.35c0.06,-0.02 0.06,-0.03 0.1,-0.06 0.08,-0.05 0.04,-0.02 0.09,-0.08l0.01 -0zm6.38 -2.05c-0.19,0 -4.62,1.83 -5.05,2.06 0.05,0.06 -0.01,0.02 0.11,0.09l3.42 1.38c0.53,0.21 3.27,1.35 3.58,1.41l-2.06 -4.94zm-19.28 7.26c0.24,-0.04 3.48,-1.37 3.98,-1.58 0.45,-0.18 1.06,-0.33 1.19,-0.61l2.14 -5.2c-1.53,-0.04 -3.96,0.04 -5.62,0.07 -0.31,0 -0.62,0.01 -0.93,0.01 -0.88,0.01 -0.95,0.08 -0.93,0.97l0.17 6.34 -0 0zm27.26 -5.52c0.04,-1.69 0.21,-1.78 -1.02,-1.79 -1.96,-0.02 -4.67,-0.13 -6.44,-0.08 0.1,0.38 1.36,3.29 1.62,3.96 0.55,1.39 0.39,1.33 1.12,1.61 0.87,0.34 4.24,1.77 4.57,1.81l0.15 -5.52 0 0.01zm-8.38 -2.16c-0.14,-0.26 -1.07,-0.98 -1.33,-1.22 -0.44,-0.41 -0.86,-0.74 -1.31,-1.16l-2.68 -2.31 -2.02 1.74c-0.22,0.19 -0.46,0.38 -0.67,0.57 -0.46,0.43 -0.87,0.75 -1.34,1.19 -0.22,0.21 -1.2,0.98 -1.3,1.19 0.76,0.22 5,2.16 5.33,2.16 0.18,0 2.33,-0.93 2.69,-1.08l2.64 -1.08 -0.01 0zm-11.45 -0.22c-0.1,-0.49 -1.36,-2.61 -1.61,-3.35 -1,0.24 -4.74,2.77 -5.09,3.44l6.69 -0.09 0.01 0zm18.94 0.08c-0.2,-0.38 -1.91,-1.63 -2.35,-1.93 -0.45,-0.31 -2.18,-1.39 -2.74,-1.51 -0.26,0.76 -1.48,2.79 -1.6,3.35l6.69 0.08 0 0.01zm-15.82 -2.62c0.45,-0.36 0.84,-0.76 1.29,-1.13 0.31,-0.26 1.03,-0.96 1.3,-1.12 -0.06,-0.17 -0.01,-0.04 -0.08,-0.19 0,-0.01 -0.03,-0.06 -0.04,-0.07l-0.04 -0.07c-1.1,-0.02 -2.62,0.26 -3.64,0.51 -0.64,0.16 -2.73,0.75 -3.07,1.06 0.1,0.31 1.53,3.19 1.65,3.29 0.39,-0.26 2.06,-1.82 2.62,-2.28l0.01 -0zm10.28 -1.02c-0.34,-0.3 -2.46,-0.91 -3.11,-1.07 -1.1,-0.26 -2.43,-0.48 -3.6,-0.51 -0.03,0.04 -0.14,0.29 -0.16,0.34 0.41,0.25 4.98,4.43 5.26,4.53l1.61 -3.29 0 0zm12.22 18.98c-0.28,4.04 -1.67,7.81 -3.98,10.82 -0.55,0.72 -1.67,2.02 -2.32,2.58 -2.02,1.72 -3.33,2.75 -6,3.85 -2.43,1 -5.37,1.65 -8.33,1.43 -4.5,-0.33 -8.52,-2.16 -11.71,-4.96 -0.65,-0.57 -0.96,-0.94 -1.52,-1.52 -1.33,-1.36 -2.94,-3.83 -3.78,-6.07 -2.07,-5.51 -1.82,-11 0.74,-16.25 0.88,-1.81 1.8,-2.98 3.02,-4.41 0.65,-0.76 1.71,-1.72 2.54,-2.36 5.93,-4.61 13.86,-5.55 20.63,-1.96 2.66,1.41 4.89,3.27 6.69,5.65 2.78,3.69 4.35,8.38 4.02,13.2z"/>
   <path class="fil3" d="M811.61 787.3c-0.16,-0.15 -2.04,-4.8 -2.31,-5.46 -0.16,-0.38 0.08,-0.67 0.34,-1.34 0.27,-0.69 1.56,-4 1.71,-4.18 0.17,0.1 3.67,3.96 3.74,4.06l1.26 1.37c0.08,0.15 0.06,0.39 0.05,0.57 -0.02,0.27 -0.05,0.22 -0.26,0.41 -0.23,0.21 -0.42,0.43 -0.64,0.65 -0.6,0.61 -3.51,3.63 -3.89,3.93l0 -0.01z"/>
   <path class="fil3" d="M783.18 787.31c-0.33,-0.16 -3.66,-3.73 -4.53,-4.54 -0.12,-0.11 -0.26,-0.21 -0.3,-0.37 -0.04,-0.17 -0.04,-0.48 0.02,-0.63 0.06,-0.14 2.09,-2.28 2.48,-2.72l2.54 -2.74c0.17,0.22 1.72,4.21 1.95,4.77 0.13,0.32 0.25,0.42 0.11,0.76 -0.38,0.91 -1.99,4.64 -2.27,5.47l0 0z"/>
   <path class="fil3" d="M791.28 795.92l-6.04 0.04c-1.29,0.01 -0.73,-0.02 -1.45,-0.57 0.09,-0.91 -0.07,-2.5 -0.1,-3.48 -0.03,-0.95 -0.2,-2.55 -0.12,-3.43 1.16,0.4 3.97,1.65 5.33,2.2 0.49,0.2 0.39,0.16 0.77,1.14 0.29,0.74 1.59,3.8 1.62,4.09l-0.02 0.01z"/>
   <path class="fil3" d="M803.46 795.92c0.03,-0.26 0.39,-1.03 0.51,-1.33l1.36 -3.38c0.15,-0.38 0.09,-0.35 0.48,-0.51 1.52,-0.6 4.01,-1.74 5.36,-2.22 0.05,0.39 -0.2,5.39 -0.24,6.32 -0.02,0.48 0.11,0.48 -0.2,0.77 -0.54,0.5 -0.14,0.39 -1.55,0.39l-5.72 -0.04 0 0z"/>
   <path class="fil3" d="M810.93 775.5c-0.33,-0.05 -3.7,-1.47 -4.57,-1.81 -0.73,-0.29 -0.57,-0.22 -1.12,-1.61 -0.26,-0.67 -1.52,-3.57 -1.62,-3.96 1.77,-0.06 4.48,0.06 6.44,0.08 1.23,0.01 1.05,0.1 1.02,1.79l-0.15 5.52 -0 -0.01z"/>
   <path class="fil3" d="M783.81 775.5l-0.17 -6.34c-0.02,-0.89 0.05,-0.96 0.93,-0.97 0.31,0 0.62,-0.01 0.93,-0.01 1.67,-0.03 4.09,-0.11 5.62,-0.07l-2.14 5.2c-0.13,0.28 -0.74,0.43 -1.19,0.61 -0.5,0.21 -3.74,1.54 -3.98,1.58l0 0z"/>
   <path class="fil3" d="M802.7 767.83l-2.64 1.08c-0.36,0.15 -2.51,1.09 -2.69,1.08 -0.33,0 -4.57,-1.94 -5.33,-2.16 0.1,-0.21 1.08,-0.98 1.3,-1.19 0.47,-0.43 0.88,-0.76 1.34,-1.19 0.21,-0.19 0.45,-0.39 0.67,-0.57l2.02 -1.74 2.68 2.31c0.45,0.42 0.88,0.75 1.31,1.16 0.26,0.24 1.19,0.96 1.33,1.22l0.01 0z"/>
   <path class="fil3" d="M802.56 796.24c-0.16,0.26 -0.98,0.9 -1.27,1.19l-1.3 1.18c-0.44,0.38 -0.87,0.77 -1.31,1.17 -0.24,0.21 -0.45,0.39 -0.65,0.59 -0.24,0.23 -0.41,0.43 -0.67,0.58 -0.2,-0.12 -0.51,-0.42 -0.67,-0.58l-3.25 -2.94c-0.23,-0.24 -1.14,-1 -1.26,-1.19 0.28,-0.17 0.92,-0.39 1.26,-0.52 0.56,-0.23 3.59,-1.48 3.93,-1.48 0.34,0 3.35,1.26 3.93,1.48 0.31,0.13 1,0.37 1.26,0.53l0 -0.01z"/>
   <path class="fil3" d="M788.98 790.15c-0.4,-0.09 -1.01,-0.38 -1.39,-0.54 -0.46,-0.2 -0.88,-0.37 -1.34,-0.56l-2.34 -0.97c-0.56,-0.22 -0.43,-0.17 0.13,-1.59 0.2,-0.48 1.63,-4 1.76,-4.17l3.18 7.83 -0 -0z"/>
   <path class="fil3" d="M811.17 787.91l-5.39 2.26 3.13 -7.86c0.16,0.19 1.03,2.35 1.19,2.75 0.2,0.5 1.11,2.45 1.07,2.85z"/>
   <path class="fil3" d="M796.96 762.83c-0.27,0.16 -0.99,0.86 -1.3,1.12 -0.45,0.37 -0.84,0.77 -1.29,1.13 -0.56,0.45 -2.23,2.01 -2.62,2.28 -0.12,-0.11 -1.55,-2.98 -1.65,-3.29 0.33,-0.31 2.43,-0.9 3.07,-1.06 1.02,-0.25 2.54,-0.53 3.64,-0.51l0.04 0.07c0,0.01 0.03,0.06 0.04,0.07 0.07,0.15 0.03,0.02 0.08,0.19l-0.01 0z"/>
   <path class="fil3" d="M804.65 764.06l-1.61 3.29c-0.28,-0.1 -4.84,-4.28 -5.26,-4.53 0.02,-0.05 0.13,-0.3 0.16,-0.34 1.17,0.03 2.5,0.25 3.6,0.51 0.65,0.16 2.77,0.77 3.11,1.07l0 -0z"/>
   <path class="fil3" d="M805.16 773.18c-0.31,-0.06 -3.05,-1.2 -3.58,-1.41l-3.42 -1.38c-0.12,-0.07 -0.06,-0.03 -0.11,-0.09 0.43,-0.23 4.86,-2.06 5.05,-2.06l2.06 4.94z"/>
   <path class="fil3" d="M796.7 770.29c-0.06,0.06 -0.02,0.03 -0.09,0.08 -0.04,0.03 -0.05,0.03 -0.1,0.06l-3.35 1.35c-0.59,0.24 -1.17,0.46 -1.77,0.71 -0.48,0.19 -1.36,0.61 -1.8,0.7l2.05 -4.96c0.3,0.05 0.97,0.37 1.27,0.49l2.52 1.04c0.43,0.17 0.86,0.39 1.28,0.53l-0.01 0z"/>
   <path class="fil3" d="M810.85 776.07c-0.03,0.14 -1.75,4.53 -1.93,4.77 -0.01,-0.01 -0.02,-0.04 -0.03,-0.03 0,0.01 -0.02,-0.03 -0.03,-0.04 -0.07,-0.1 -0.01,0.01 -0.06,-0.1l-0.25 -0.62c-0.12,-0.3 -0.22,-0.54 -0.35,-0.84 -0.29,-0.7 -2,-4.73 -2.08,-5.06l4.45 1.77c0.17,0.07 0.17,0.06 0.29,0.15l-0.01 -0.01z"/>
   <path class="fil3" d="M785.81 780.87l-1.94 -4.79c0.16,-0.12 0.4,-0.2 0.59,-0.28l4.15 -1.65c-0.08,0.36 -2.18,5.26 -2.59,6.3l-0.21 0.41 0 0.01z"/>
   <path class="fil3" d="M796.59 793.91c-0.67,0.26 -4.41,1.83 -4.74,1.87 -0.15,-0.19 -1.8,-4.22 -1.91,-4.65 0.36,0.08 6.57,2.7 6.65,2.78z"/>
   <path class="fil3" d="M802.89 795.78c-0.4,-0.05 -3.96,-1.59 -4.74,-1.87 0.19,-0.15 2.85,-1.22 3.28,-1.4 0.66,-0.26 2.98,-1.28 3.37,-1.38 -0.09,0.37 -1.76,4.48 -1.91,4.65l0 0z"/>
   <path class="fil3" d="M796.89 801.23c-0.78,0.08 -2.71,-0.27 -3.45,-0.44 -1.13,-0.26 -1.98,-0.59 -2.99,-0.93 0.08,-0.33 1.11,-3.13 1.24,-3.32 0.18,0.08 1.66,1.49 1.96,1.75l1.31 1.17c0.12,0.11 0.19,0.2 0.31,0.3 0.13,0.11 0.22,0.17 0.33,0.29 0.44,0.43 0.85,0.75 1.28,1.18l0 0z"/>
   <path class="fil3" d="M804.29 799.87c-0.46,0.13 -0.95,0.34 -1.44,0.5 -1.19,0.38 -3.91,0.98 -5,0.86l1.61 -1.46c0.12,-0.11 0.2,-0.2 0.32,-0.3 0.22,-0.19 0.43,-0.4 0.65,-0.59 0.22,-0.18 0.44,-0.4 0.65,-0.58 0.22,-0.19 0.46,-0.41 0.65,-0.59 0.24,-0.24 0.39,-0.33 0.65,-0.59 0.12,-0.12 0.53,-0.51 0.67,-0.57 0.13,0.17 1.17,2.98 1.25,3.32l-0 0z"/>
   <path class="fil3" d="M783.02 775.91c-0.09,0.21 -1.97,2.17 -2.3,2.55l-1.73 1.89c-0.14,0.17 -0.46,0.52 -0.62,0.63 -0.05,-2.13 0.76,-4.71 1.4,-6.44l3.24 1.38 0 -0.01z"/>
   <path class="fil3" d="M816.37 780.97c-0.2,-0.13 -0.97,-1 -1.19,-1.25 -0.81,-0.95 -2.07,-2.19 -2.89,-3.15 -0.18,-0.2 -0.46,-0.44 -0.57,-0.65l3.22 -1.39c0.63,1.11 1.48,4.94 1.41,6.44l0.02 -0z"/>
   <path class="fil3" d="M791.24 767.61l-6.69 0.09c0.34,-0.67 4.08,-3.2 5.09,-3.44 0.25,0.74 1.51,2.86 1.61,3.35l-0.01 0z"/>
   <path class="fil3" d="M810.19 767.69l-6.69 -0.08c0.12,-0.57 1.35,-2.59 1.6,-3.35 0.56,0.12 2.29,1.2 2.74,1.51 0.44,0.3 2.15,1.55 2.35,1.93l0 -0.01z"/>
   <path class="fil3" d="M814.81 789.48c-0.07,0.34 -0.52,1.18 -0.69,1.49 -0.55,1.02 -1.87,3.09 -2.67,3.81 -0.07,-0.54 0.19,-4.91 0.22,-6.02 0.02,-0.68 -0.18,-0.61 1.15,-0.08 0.44,0.18 1.72,0.61 2,0.81l-0.01 -0.01z"/>
   <path class="fil3" d="M783.31 794.76c-0.67,-0.37 -3.17,-4.26 -3.39,-5.28 0.21,-0.14 2.97,-1.22 3.13,-1.2l0.26 6.48z"/>
   <path class="fil3" d="M783.31 775.46l-3.31 -1.39c0.2,-0.98 2.6,-4.61 3.15,-4.93l0.16 6.32z"/>
   <path class="fil3" d="M814.74 774.06l-3.3 1.41 0.15 -6.34c0.35,0.2 1.47,1.83 1.76,2.3 0.29,0.47 1.28,2.09 1.38,2.63l0.01 0z"/>
   <path class="fil3" d="M815.07 788.98c-0.26,-0.04 -2.78,-1.03 -3.15,-1.2 0.06,-0.2 0.87,-0.95 1.07,-1.15l2.23 -2.26c0.42,-0.43 0.78,-0.72 1.11,-1.11 0.06,1.06 -0.47,3.3 -0.81,4.4 -0.14,0.44 -0.35,0.92 -0.45,1.32z"/>
   <path class="fil3" d="M789.98 799.63c-0.57,-0.13 -2.17,-1.08 -2.66,-1.4 -0.45,-0.3 -2.15,-1.46 -2.32,-1.77l6.15 -0.04 -1.17 3.21 0 0z"/>
   <path class="fil3" d="M804.76 799.63l-1.19 -3.2 6.14 0.03c-0.15,0.47 -3.97,2.93 -4.95,3.17l-0 0z"/>
   <path class="fil3" d="M782.85 787.76c-0.35,0.17 -2.9,1.19 -3.18,1.21 -0.2,-0.76 -0.54,-1.44 -0.83,-2.69 -0.17,-0.73 -0.48,-2.27 -0.44,-3.02 0.63,0.69 1.52,1.5 2.22,2.22l2.22 2.28 0.01 0z"/>
  </g>
  <g id="_2980476809792">
   <path class="fil3" d="M1118.37 180.16c3.27,1.2 7.61,3.05 11.04,4.44 0.87,0.36 1.21,0.33 1.43,0.83l4.53 10.92c0.39,0.96 0.43,0.71 0.02,1.69 -0.89,2.13 -1.67,4.2 -2.54,6.31 -0.87,2.09 -1.7,4.17 -2.54,6.32 -0.21,0.55 -0.81,0.61 -1.33,0.83l-4.72 1.97c-0.91,0.39 -5.75,2.56 -6.42,2.34 -2.14,-0.7 -8.31,-3.33 -10.99,-4.47 -0.97,-0.41 -0.72,-0.19 -1.11,-1.14 -0.87,-2.11 -1.72,-4.24 -2.54,-6.32 -0.84,-2.13 -1.72,-4.2 -2.55,-6.31 -0.22,-0.56 0.15,-1.12 0.36,-1.62l3.91 -9.39c0.87,-2.07 0.17,-1.23 3.9,-2.78l7.87 -3.16c0.44,-0.18 1.22,-0.64 1.69,-0.47l-0.01 0.01z"/>
   <path class="fil4" d="M1117.37 227.86c-0.66,-0.67 -1.3,-1.16 -1.99,-1.84 -0.19,-0.18 -0.32,-0.28 -0.52,-0.45 -0.19,-0.16 -0.31,-0.3 -0.5,-0.47l-2.04 -1.83c-0.48,-0.41 -2.79,-2.61 -3.07,-2.74 -0.2,0.29 -1.82,4.66 -1.94,5.18 1.56,0.53 2.89,1.04 4.66,1.45 1.17,0.27 4.18,0.82 5.39,0.69l0.01 0.01zm11.54 -2.14c-0.11,-0.53 -1.75,-4.92 -1.94,-5.19 -0.22,0.1 -0.86,0.71 -1.05,0.89 -0.4,0.4 -0.62,0.54 -1.01,0.92 -0.29,0.29 -0.67,0.63 -1.01,0.93 -0.33,0.29 -0.67,0.63 -1.02,0.91 -0.36,0.3 -0.67,0.61 -1.02,0.91 -0.19,0.16 -0.31,0.31 -0.5,0.47l-2.51 2.29c1.7,0.19 5.94,-0.75 7.8,-1.35 0.78,-0.25 1.54,-0.57 2.25,-0.79l0.02 0.01zm-20.5 -5.37l-9.6 0.07c0.26,0.48 2.92,2.3 3.62,2.76 0.76,0.49 3.26,1.98 4.15,2.18l1.83 -5.01zm21.23 5.02c1.54,-0.38 7.5,-4.23 7.73,-4.96l-9.59 -0.05 1.86 5.01 0 0zm-3.43 -5.3c-0.4,-0.24 -1.47,-0.62 -1.97,-0.82 -0.9,-0.35 -5.61,-2.31 -6.13,-2.31 -0.53,0 -5.25,1.96 -6.13,2.31 -0.52,0.21 -1.53,0.55 -1.96,0.81 0.19,0.3 1.61,1.49 1.98,1.85l5.07 4.59c0.26,0.25 0.74,0.71 1.05,0.9 0.41,-0.24 0.68,-0.56 1.04,-0.91 0.31,-0.31 0.65,-0.59 1.02,-0.92 0.68,-0.61 1.35,-1.23 2.04,-1.83l2.03 -1.84c0.44,-0.44 1.72,-1.44 1.98,-1.85l-0.02 0.02zm-9.31 -3.63c-0.13,-0.12 -9.82,-4.21 -10.38,-4.34 0.17,0.67 2.74,6.96 2.98,7.26 0.52,-0.06 6.36,-2.52 7.41,-2.92l-0.01 0zm9.83 2.92c0.23,-0.26 2.85,-6.69 2.98,-7.26 -0.61,0.16 -4.22,1.74 -5.26,2.16 -0.68,0.27 -4.83,1.95 -5.13,2.18 1.21,0.44 6.78,2.84 7.4,2.92l0.01 -0zm-30.98 -11.72c-0.25,-0.02 -4.56,1.66 -4.88,1.88 0.34,1.6 4.25,7.67 5.28,8.25l-0.4 -10.13 0 0zm49.61 1.88c-0.44,-0.31 -2.43,-0.98 -3.12,-1.26 -2.08,-0.83 -1.76,-0.94 -1.79,0.13 -0.05,1.73 -0.44,8.56 -0.35,9.4 1.26,-1.11 3.32,-4.35 4.17,-5.94 0.26,-0.49 0.97,-1.79 1.08,-2.33l0.01 0zm-36.75 10.05c-0.05,-0.47 -2.07,-5.24 -2.52,-6.39 -0.59,-1.53 -0.44,-1.47 -1.2,-1.78 -2.12,-0.86 -6.51,-2.82 -8.31,-3.44 -0.13,1.37 0.14,3.87 0.19,5.35 0.06,1.53 0.31,4.01 0.16,5.43 1.13,0.85 0.26,0.91 2.27,0.89l9.42 -0.06 -0.01 0zm30.68 -1.75c0.06,-1.45 0.44,-9.26 0.37,-9.86 -2.11,0.74 -6,2.52 -8.37,3.46 -0.6,0.24 -0.5,0.2 -0.74,0.79l-2.13 5.28c-0.2,0.48 -0.75,1.69 -0.8,2.09l8.94 0.06c2.19,0.02 1.57,0.19 2.41,-0.61 0.49,-0.46 0.29,-0.45 0.32,-1.2l0 -0.01zm0.36 -10.75c0.06,-0.62 -1.36,-3.66 -1.67,-4.44 -0.25,-0.63 -1.61,-4 -1.86,-4.3l-4.89 12.27 8.42 -3.52 -0 -0.01zm-39.57 -8.73c-0.2,0.26 -2.44,5.75 -2.75,6.51 -0.88,2.21 -1.09,2.13 -0.21,2.48l3.65 1.51c0.73,0.31 1.37,0.57 2.1,0.88 0.59,0.25 1.54,0.7 2.17,0.85l-4.96 -12.22 0 -0.02zm45.9 3.21l-3.48 3.52c-0.31,0.31 -1.57,1.48 -1.67,1.8 0.58,0.27 4.51,1.81 4.92,1.87 0.15,-0.63 0.49,-1.37 0.7,-2.06 0.53,-1.72 1.35,-5.21 1.27,-6.87 -0.53,0.61 -1.09,1.07 -1.74,1.73l-0 0.01zm-53.99 1.74c-1.1,-1.13 -2.48,-2.39 -3.47,-3.46 -0.06,1.18 0.43,3.58 0.69,4.72 0.44,1.94 0.98,3.02 1.29,4.2 0.44,-0.04 4.42,-1.63 4.96,-1.89l-3.47 -3.56 -0 -0.01zm3.97 2.85c0.44,-1.3 2.96,-7.12 3.55,-8.54 0.22,-0.54 0.04,-0.69 -0.16,-1.19 -0.37,-0.87 -2.78,-7.11 -3.05,-7.44l-3.96 4.28c-0.6,0.7 -3.78,4.04 -3.87,4.26 -0.1,0.23 -0.09,0.7 -0.03,0.98 0.05,0.24 0.27,0.4 0.46,0.57 1.35,1.25 6.55,6.83 7.07,7.08l-0.01 0zm22.42 -25.96c-0.46,-0.17 -1.25,0.29 -1.69,0.47l-7.87 3.16c-3.73,1.55 -3.02,0.71 -3.9,2.78l-3.91 9.39c-0.21,0.5 -0.58,1.06 -0.36,1.62 0.83,2.11 1.71,4.18 2.55,6.31 0.82,2.08 1.67,4.21 2.54,6.32 0.4,0.95 0.15,0.73 1.11,1.14 2.67,1.15 8.85,3.77 10.99,4.47 0.67,0.22 5.51,-1.96 6.42,-2.34l4.72 -1.97c0.52,-0.22 1.12,-0.28 1.33,-0.83 0.84,-2.15 1.67,-4.22 2.54,-6.32 0.87,-2.11 1.65,-4.19 2.54,-6.31 0.41,-0.98 0.37,-0.73 -0.02,-1.69l-4.53 -10.92c-0.22,-0.5 -0.56,-0.47 -1.43,-0.83 -3.43,-1.39 -7.77,-3.24 -11.04,-4.44l0.01 -0.01zm21.96 25.94c0.6,-0.48 5.13,-5.18 6.08,-6.14 0.35,-0.35 0.64,-0.68 1,-1.01 0.31,-0.29 0.37,-0.22 0.4,-0.63 0.02,-0.28 0.05,-0.66 -0.08,-0.89l-1.96 -2.15c-0.12,-0.14 -5.58,-6.17 -5.85,-6.33 -0.23,0.29 -2.26,5.46 -2.67,6.52 -0.41,1.04 -0.78,1.5 -0.54,2.09 0.43,1.05 3.37,8.3 3.61,8.53l0.01 0.01zm-49.7 -19.94c-1,2.71 -2.27,6.74 -2.19,10.07 0.25,-0.17 0.74,-0.73 0.97,-0.99l2.7 -2.94c0.52,-0.61 3.44,-3.66 3.59,-3.99l-5.07 -2.15 0 -0zm57.13 10.06c0.1,-2.36 -1.22,-8.33 -2.2,-10.06l-5.04 2.18c0.16,0.33 0.61,0.69 0.89,1.02 1.28,1.5 3.24,3.43 4.51,4.92 0.33,0.39 1.52,1.74 1.85,1.95l-0.01 -0.01zm-47.69 -0.16l0.32 -0.65c0.64,-1.61 3.93,-9.27 4.05,-9.84l-6.48 2.57c-0.31,0.12 -0.68,0.24 -0.93,0.43l3.04 7.48 0 0.01zm39.09 -7.49c-0.19,-0.15 -0.18,-0.13 -0.45,-0.24l-6.94 -2.76c0.13,0.52 2.8,6.81 3.25,7.9 0.19,0.46 0.36,0.85 0.55,1.31l0.39 0.97c0.09,0.17 0,0 0.1,0.16 0.01,0.01 0.04,0.07 0.04,0.05 0,-0.01 0.03,0.04 0.04,0.05 0.29,-0.38 2.96,-7.23 3.02,-7.45l0 0zm-43.26 -10.83c-0.86,0.51 -4.6,6.18 -4.92,7.7l5.18 2.17 -0.26 -9.87zm49.33 7.69c-0.17,-0.84 -1.7,-3.37 -2.16,-4.1 -0.45,-0.72 -2.21,-3.27 -2.75,-3.58l-0.24 9.89 5.15 -2.21 0 -0zm-28.15 -5.89c-0.66,-0.21 -1.33,-0.55 -2.01,-0.82l-3.92 -1.63c-0.47,-0.19 -1.52,-0.7 -1.98,-0.77l-3.2 7.74c0.69,-0.15 2.07,-0.81 2.82,-1.11 0.93,-0.38 1.84,-0.73 2.76,-1.1l5.23 -2.1c0.09,-0.04 0.1,-0.04 0.17,-0.09 0.12,-0.08 0.06,-0.03 0.15,-0.13l-0.01 0.01zm9.96 -3.2c-0.29,0.01 -7.22,2.86 -7.88,3.21 0.07,0.09 -0.02,0.03 0.17,0.14l5.33 2.16c0.83,0.33 5.11,2.1 5.59,2.2l-3.22 -7.71 0.01 -0zm-30.1 11.35c0.38,-0.06 5.43,-2.15 6.22,-2.46 0.7,-0.29 1.65,-0.52 1.86,-0.95l3.34 -8.11c-2.39,-0.07 -6.18,0.05 -8.78,0.1 -0.48,0.01 -0.97,0.02 -1.45,0.02 -1.37,0.01 -1.48,0.13 -1.45,1.51l0.26 9.9 0 -0.01zm42.56 -8.61c0.06,-2.64 0.33,-2.78 -1.58,-2.8 -3.06,-0.04 -7.3,-0.2 -10.07,-0.12 0.16,0.59 2.12,5.13 2.54,6.17 0.86,2.18 0.61,2.07 1.75,2.52 1.36,0.53 6.62,2.76 7.14,2.83l0.23 -8.61 -0.01 0.01zm-13.08 -3.37c-0.22,-0.4 -1.68,-1.53 -2.07,-1.9 -0.69,-0.65 -1.35,-1.16 -2.06,-1.81l-4.19 -3.62 -3.15 2.73c-0.34,0.3 -0.72,0.59 -1.04,0.89 -0.72,0.67 -1.36,1.17 -2.09,1.85 -0.35,0.33 -1.88,1.53 -2.04,1.86 1.18,0.34 7.8,3.37 8.31,3.38 0.27,0 3.64,-1.46 4.2,-1.69l4.12 -1.69 0.01 0zm-17.87 -0.34c-0.15,-0.77 -2.12,-4.08 -2.5,-5.24 -1.57,0.37 -7.41,4.33 -7.94,5.37l10.45 -0.13 -0.01 0zm29.57 0.13c-0.31,-0.59 -2.98,-2.54 -3.67,-3.01 -0.7,-0.48 -3.41,-2.16 -4.27,-2.35 -0.4,1.19 -2.31,4.35 -2.5,5.23l10.45 0.13 -0.01 0zm-24.7 -4.09c0.7,-0.57 1.32,-1.19 2.02,-1.76 0.49,-0.4 1.61,-1.5 2.04,-1.74 -0.09,-0.27 -0.02,-0.06 -0.13,-0.3 -0.01,-0.02 -0.05,-0.1 -0.06,-0.11l-0.06 -0.12c-1.72,-0.02 -4.09,0.42 -5.68,0.8 -1.01,0.24 -4.27,1.17 -4.8,1.65 0.17,0.49 2.39,4.98 2.58,5.14 0.61,-0.41 3.21,-2.84 4.09,-3.55l0 -0.01zm16.05 -1.59c-0.53,-0.47 -3.83,-1.43 -4.86,-1.67 -1.71,-0.41 -3.78,-0.75 -5.61,-0.8 -0.05,0.07 -0.22,0.46 -0.25,0.54 0.64,0.39 7.77,6.91 8.2,7.07l2.51 -5.14 0 0zm19.08 29.63c-0.43,6.31 -2.6,12.2 -6.21,16.89 -0.86,1.11 -2.6,3.16 -3.63,4.03 -3.17,2.68 -5.21,4.29 -9.37,6.01 -3.8,1.56 -8.38,2.57 -13,2.24 -7.03,-0.52 -13.3,-3.38 -18.28,-7.75 -1.02,-0.89 -1.49,-1.48 -2.37,-2.38 -2.07,-2.13 -4.59,-5.98 -5.91,-9.47 -3.23,-8.61 -2.85,-17.17 1.16,-25.37 1.38,-2.82 2.82,-4.65 4.72,-6.87 1.02,-1.2 2.67,-2.69 3.96,-3.69 9.25,-7.2 21.64,-8.66 32.22,-3.06 4.16,2.2 7.64,5.1 10.44,8.81 4.34,5.77 6.79,13.08 6.27,20.62l-0.01 -0.02z"/>
   <path class="fil3" d="M1140.33 206.11c-0.24,-0.22 -3.18,-7.48 -3.61,-8.53 -0.25,-0.6 0.13,-1.05 0.54,-2.09 0.42,-1.06 2.44,-6.24 2.67,-6.52 0.26,0.16 5.72,6.19 5.85,6.33l1.96 2.15c0.13,0.23 0.1,0.61 0.08,0.89 -0.03,0.41 -0.08,0.35 -0.4,0.63 -0.37,0.33 -0.66,0.66 -1,1.01 -0.94,0.96 -5.48,5.66 -6.08,6.14l-0.01 -0.01z"/>
   <path class="fil3" d="M1095.94 206.12c-0.52,-0.25 -5.72,-5.83 -7.07,-7.08 -0.19,-0.17 -0.41,-0.33 -0.46,-0.57 -0.06,-0.27 -0.07,-0.74 0.03,-0.98 0.1,-0.22 3.27,-3.56 3.87,-4.26l3.96 -4.28c0.27,0.34 2.69,6.57 3.05,7.44 0.2,0.49 0.39,0.65 0.16,1.19 -0.59,1.42 -3.1,7.24 -3.55,8.54l0.01 0z"/>
   <path class="fil3" d="M1108.61 219.56l-9.42 0.06c-2.01,0.02 -1.14,-0.04 -2.27,-0.89 0.15,-1.42 -0.1,-3.9 -0.16,-5.43 -0.05,-1.48 -0.32,-3.98 -0.19,-5.35 1.8,0.62 6.2,2.58 8.31,3.44 0.76,0.31 0.61,0.26 1.2,1.78 0.45,1.16 2.47,5.93 2.52,6.39l0.01 0z"/>
   <path class="fil3" d="M1127.61 219.56c0.05,-0.4 0.6,-1.6 0.8,-2.09l2.13 -5.28c0.24,-0.59 0.15,-0.55 0.74,-0.79 2.37,-0.94 6.26,-2.72 8.37,-3.46 0.07,0.6 -0.31,8.41 -0.37,9.86 -0.03,0.75 0.17,0.74 -0.32,1.2 -0.84,0.79 -0.22,0.62 -2.41,0.61l-8.94 -0.06 0 0.01z"/>
   <path class="fil3" d="M1139.28 187.69c-0.52,-0.07 -5.78,-2.3 -7.14,-2.83 -1.14,-0.45 -0.89,-0.35 -1.75,-2.52 -0.41,-1.04 -2.38,-5.58 -2.54,-6.17 2.77,-0.09 7,0.08 10.07,0.12 1.91,0.02 1.64,0.16 1.58,2.8l-0.23 8.61 0.01 -0.01z"/>
   <path class="fil3" d="M1096.94 187.69l-0.26 -9.9c-0.03,-1.38 0.08,-1.5 1.45,-1.51 0.48,-0.01 0.96,-0.02 1.45,-0.02 2.6,-0.05 6.39,-0.17 8.78,-0.1l-3.34 8.11c-0.21,0.43 -1.17,0.67 -1.86,0.95 -0.79,0.32 -5.84,2.41 -6.22,2.46l0 0.01z"/>
   <path class="fil3" d="M1126.43 175.71l-4.12 1.69c-0.56,0.24 -3.93,1.69 -4.2,1.69 -0.52,0 -7.13,-3.04 -8.31,-3.38 0.16,-0.33 1.68,-1.54 2.04,-1.86 0.73,-0.68 1.37,-1.18 2.09,-1.85 0.33,-0.3 0.7,-0.6 1.04,-0.89l3.15 -2.73 4.19 3.62c0.71,0.66 1.37,1.17 2.06,1.81 0.39,0.37 1.86,1.5 2.07,1.9l-0.01 0z"/>
   <path class="fil3" d="M1126.2 220.06c-0.25,0.41 -1.54,1.41 -1.98,1.85l-2.03 1.84c-0.69,0.6 -1.36,1.21 -2.04,1.83 -0.37,0.33 -0.7,0.61 -1.02,0.92 -0.36,0.35 -0.63,0.67 -1.04,0.91 -0.31,-0.19 -0.8,-0.65 -1.05,-0.9l-5.07 -4.59c-0.37,-0.36 -1.79,-1.55 -1.98,-1.85 0.44,-0.26 1.44,-0.6 1.96,-0.81 0.88,-0.35 5.61,-2.31 6.13,-2.31 0.52,0 5.23,1.96 6.13,2.31 0.5,0.2 1.57,0.57 1.97,0.82l0.02 -0.02z"/>
   <path class="fil3" d="M1105.02 210.55c-0.63,-0.15 -1.57,-0.6 -2.17,-0.85 -0.73,-0.31 -1.37,-0.57 -2.1,-0.88l-3.65 -1.51c-0.88,-0.34 -0.67,-0.27 0.21,-2.48 0.3,-0.76 2.55,-6.24 2.75,-6.51l4.96 12.22 0 0.02z"/>
   <path class="fil3" d="M1139.65 207.06l-8.42 3.52 4.89 -12.27c0.24,0.3 1.61,3.67 1.86,4.3 0.31,0.79 1.73,3.83 1.67,4.44l0 0.01z"/>
   <path class="fil3" d="M1117.48 167.9c-0.43,0.24 -1.54,1.35 -2.04,1.74 -0.7,0.57 -1.31,1.2 -2.02,1.76 -0.88,0.71 -3.48,3.15 -4.09,3.55 -0.19,-0.16 -2.41,-4.65 -2.58,-5.14 0.53,-0.48 3.79,-1.41 4.8,-1.65 1.59,-0.39 3.96,-0.82 5.68,-0.8l0.06 0.12c0.01,0.02 0.05,0.09 0.06,0.11 0.11,0.24 0.04,0.03 0.13,0.3l0 0.01z"/>
   <path class="fil3" d="M1129.46 169.82l-2.51 5.14c-0.44,-0.16 -7.56,-6.68 -8.2,-7.07 0.03,-0.08 0.2,-0.47 0.25,-0.54 1.83,0.05 3.9,0.39 5.61,0.8 1.02,0.24 4.33,1.19 4.86,1.67l-0 0z"/>
   <path class="fil3" d="M1130.26 184.06c-0.48,-0.1 -4.76,-1.87 -5.59,-2.2l-5.33 -2.16c-0.19,-0.11 -0.1,-0.05 -0.17,-0.14 0.67,-0.35 7.59,-3.2 7.88,-3.21l3.22 7.71 -0.01 0z"/>
   <path class="fil3" d="M1117.09 179.54c-0.09,0.09 -0.02,0.05 -0.15,0.13 -0.07,0.04 -0.07,0.05 -0.17,0.09l-5.23 2.1c-0.91,0.37 -1.83,0.72 -2.76,1.1 -0.75,0.3 -2.13,0.96 -2.82,1.11l3.2 -7.74c0.46,0.07 1.51,0.58 1.98,0.77l3.92 1.63c0.67,0.27 1.35,0.61 2.01,0.82l0.01 -0.01z"/>
   <path class="fil3" d="M1139.17 188.58c-0.05,0.22 -2.73,7.07 -3.02,7.45 -0.02,-0.02 -0.04,-0.06 -0.04,-0.05 -0.01,0.02 -0.04,-0.04 -0.04,-0.05 -0.1,-0.16 -0.01,0.01 -0.1,-0.16l-0.39 -0.97c-0.19,-0.46 -0.35,-0.84 -0.55,-1.31 -0.45,-1.09 -3.13,-7.38 -3.25,-7.9l6.94 2.76c0.28,0.11 0.26,0.08 0.45,0.24l-0 -0z"/>
   <path class="fil3" d="M1100.07 196.07l-3.04 -7.48c0.25,-0.19 0.62,-0.31 0.93,-0.43l6.48 -2.57c-0.13,0.57 -3.41,8.22 -4.05,9.84l-0.32 0.65 0 -0.01z"/>
   <path class="fil3" d="M1116.89 216.43c-1.05,0.4 -6.88,2.86 -7.41,2.92 -0.24,-0.29 -2.8,-6.59 -2.98,-7.26 0.56,0.13 10.25,4.22 10.38,4.34l0.01 0z"/>
   <path class="fil3" d="M1126.72 219.35c-0.62,-0.08 -6.19,-2.48 -7.4,-2.92 0.3,-0.23 4.45,-1.91 5.13,-2.18 1.03,-0.41 4.65,-2 5.26,-2.16 -0.13,0.57 -2.76,7 -2.98,7.26l-0.01 0z"/>
   <path class="fil3" d="M1117.37 227.86c-1.22,0.13 -4.23,-0.42 -5.39,-0.69 -1.77,-0.41 -3.1,-0.92 -4.66,-1.45 0.12,-0.52 1.74,-4.89 1.94,-5.18 0.28,0.12 2.59,2.32 3.07,2.74l2.04 1.83c0.19,0.17 0.3,0.31 0.5,0.47 0.2,0.17 0.33,0.27 0.52,0.45 0.69,0.68 1.33,1.18 1.99,1.84l-0.01 -0.01z"/>
   <path class="fil3" d="M1128.91 225.72c-0.71,0.21 -1.48,0.54 -2.25,0.79 -1.86,0.6 -6.1,1.54 -7.8,1.35l2.51 -2.29c0.19,-0.17 0.31,-0.31 0.5,-0.47 0.35,-0.3 0.66,-0.61 1.02,-0.91 0.35,-0.28 0.69,-0.62 1.02,-0.91 0.34,-0.3 0.72,-0.64 1.01,-0.93 0.39,-0.38 0.61,-0.52 1.01,-0.92 0.19,-0.19 0.83,-0.8 1.05,-0.89 0.19,0.26 1.83,4.65 1.94,5.19l-0.02 -0.01z"/>
   <path class="fil3" d="M1095.7 188.31c-0.15,0.33 -3.07,3.38 -3.59,3.99l-2.7 2.94c-0.22,0.26 -0.72,0.82 -0.97,0.99 -0.08,-3.32 1.18,-7.36 2.19,-10.07l5.07 2.15 0 0z"/>
   <path class="fil3" d="M1147.76 196.22c-0.32,-0.21 -1.52,-1.57 -1.85,-1.95 -1.27,-1.48 -3.23,-3.42 -4.51,-4.92 -0.28,-0.32 -0.73,-0.69 -0.89,-1.02l5.04 -2.18c0.98,1.73 2.31,7.7 2.2,10.06l0.01 0.01z"/>
   <path class="fil3" d="M1108.56 175.37l-10.45 0.13c0.53,-1.05 6.37,-5 7.94,-5.37 0.39,1.16 2.35,4.47 2.5,5.24l0.01 0z"/>
   <path class="fil3" d="M1138.13 175.49l-10.45 -0.13c0.19,-0.88 2.1,-4.05 2.5,-5.23 0.87,0.19 3.57,1.87 4.27,2.35 0.69,0.47 3.36,2.42 3.67,3.01l0.01 -0z"/>
   <path class="fil3" d="M1145.35 209.51c-0.11,0.54 -0.82,1.84 -1.08,2.33 -0.85,1.59 -2.91,4.83 -4.17,5.94 -0.1,-0.84 0.3,-7.67 0.35,-9.4 0.03,-1.06 -0.29,-0.96 1.79,-0.13 0.69,0.28 2.68,0.94 3.12,1.26l-0.01 0z"/>
   <path class="fil3" d="M1096.15 217.76c-1.04,-0.58 -4.94,-6.65 -5.28,-8.25 0.32,-0.22 4.63,-1.9 4.88,-1.88l0.4 10.13 -0 0z"/>
   <path class="fil3" d="M1096.17 187.62l-5.18 -2.17c0.32,-1.52 4.06,-7.19 4.92,-7.7l0.26 9.87z"/>
   <path class="fil3" d="M1145.24 185.44l-5.15 2.21 0.24 -9.89c0.54,0.31 2.3,2.86 2.75,3.58 0.46,0.73 1.99,3.26 2.16,4.1l0 0z"/>
   <path class="fil3" d="M1145.74 208.73c-0.41,-0.06 -4.34,-1.6 -4.92,-1.87 0.09,-0.31 1.35,-1.48 1.67,-1.8l3.48 -3.52c0.65,-0.67 1.22,-1.13 1.74,-1.73 0.08,1.66 -0.74,5.15 -1.27,6.87 -0.21,0.69 -0.55,1.43 -0.7,2.06l0 -0.01z"/>
   <path class="fil3" d="M1106.57 225.36c-0.89,-0.2 -3.39,-1.69 -4.15,-2.18 -0.7,-0.46 -3.36,-2.29 -3.62,-2.76l9.6 -0.07 -1.83 5.01z"/>
   <path class="fil3" d="M1129.63 225.36l-1.86 -5.01 9.59 0.05c-0.24,0.73 -6.2,4.58 -7.73,4.96l-0 0z"/>
   <path class="fil3" d="M1095.44 206.83c-0.54,0.26 -4.52,1.85 -4.96,1.89 -0.31,-1.18 -0.84,-2.25 -1.29,-4.2 -0.26,-1.14 -0.75,-3.54 -0.69,-4.72 0.99,1.07 2.37,2.34 3.47,3.46l3.47 3.56 0 0.01z"/>
  </g>
  <g id="_2980230407584">
   <path class="fil3" d="M209.11 1096.49c3.27,1.2 7.61,3.05 11.04,4.44 0.87,0.36 1.21,0.33 1.43,0.83l4.53 10.92c0.39,0.96 0.43,0.71 0.02,1.69 -0.89,2.13 -1.67,4.2 -2.54,6.31 -0.87,2.09 -1.7,4.17 -2.54,6.32 -0.21,0.55 -0.81,0.61 -1.33,0.83l-4.72 1.97c-0.91,0.39 -5.75,2.56 -6.42,2.34 -2.14,-0.7 -8.31,-3.33 -10.99,-4.47 -0.97,-0.41 -0.72,-0.19 -1.11,-1.14 -0.87,-2.11 -1.72,-4.24 -2.54,-6.32 -0.84,-2.13 -1.72,-4.2 -2.55,-6.31 -0.22,-0.56 0.15,-1.12 0.36,-1.62l3.91 -9.39c0.87,-2.07 0.17,-1.23 3.9,-2.78l7.87 -3.16c0.44,-0.18 1.22,-0.64 1.69,-0.47l-0.01 0.01z"/>
   <path class="fil4" d="M208.11 1144.18c-0.66,-0.67 -1.3,-1.16 -1.99,-1.84 -0.19,-0.18 -0.32,-0.28 -0.52,-0.45 -0.19,-0.16 -0.31,-0.3 -0.5,-0.47l-2.04 -1.83c-0.48,-0.41 -2.79,-2.61 -3.07,-2.74 -0.2,0.29 -1.82,4.66 -1.94,5.18 1.56,0.53 2.89,1.04 4.66,1.45 1.17,0.27 4.18,0.82 5.39,0.69l0.01 0.01zm11.54 -2.14c-0.11,-0.53 -1.75,-4.92 -1.94,-5.19 -0.22,0.1 -0.86,0.71 -1.05,0.89 -0.4,0.4 -0.62,0.54 -1.01,0.92 -0.29,0.29 -0.67,0.63 -1.01,0.93 -0.33,0.29 -0.67,0.63 -1.02,0.91 -0.36,0.3 -0.67,0.61 -1.02,0.91 -0.19,0.16 -0.31,0.31 -0.5,0.47l-2.51 2.29c1.7,0.19 5.94,-0.75 7.8,-1.35 0.78,-0.25 1.54,-0.57 2.25,-0.79l0.02 0.01zm-20.5 -5.37l-9.6 0.07c0.26,0.48 2.92,2.3 3.62,2.76 0.76,0.49 3.26,1.98 4.15,2.18l1.83 -5.01zm21.23 5.02c1.54,-0.38 7.5,-4.23 7.73,-4.96l-9.59 -0.05 1.86 5.01 0 0zm-3.43 -5.3c-0.4,-0.24 -1.47,-0.62 -1.97,-0.82 -0.9,-0.35 -5.61,-2.31 -6.13,-2.31 -0.53,0 -5.25,1.96 -6.13,2.31 -0.52,0.21 -1.53,0.55 -1.96,0.81 0.19,0.3 1.61,1.49 1.98,1.85l5.07 4.59c0.26,0.25 0.74,0.71 1.05,0.9 0.41,-0.24 0.68,-0.56 1.04,-0.91 0.31,-0.31 0.65,-0.59 1.02,-0.92 0.68,-0.61 1.35,-1.23 2.04,-1.83l2.03 -1.84c0.44,-0.44 1.72,-1.44 1.98,-1.85l-0.02 0.02zm-9.31 -3.63c-0.13,-0.12 -9.82,-4.21 -10.38,-4.34 0.17,0.67 2.74,6.96 2.98,7.26 0.52,-0.06 6.36,-2.52 7.41,-2.92l-0.01 0zm9.83 2.92c0.23,-0.26 2.85,-6.69 2.98,-7.26 -0.61,0.16 -4.22,1.74 -5.26,2.16 -0.68,0.27 -4.83,1.95 -5.13,2.18 1.21,0.44 6.78,2.84 7.4,2.92l0.01 -0zm-30.98 -11.72c-0.25,-0.02 -4.56,1.66 -4.88,1.88 0.34,1.6 4.25,7.67 5.28,8.25l-0.4 -10.13 0 0zm49.61 1.88c-0.44,-0.31 -2.43,-0.98 -3.12,-1.26 -2.08,-0.83 -1.76,-0.94 -1.79,0.13 -0.05,1.73 -0.44,8.56 -0.35,9.4 1.26,-1.11 3.32,-4.35 4.17,-5.94 0.26,-0.49 0.97,-1.79 1.08,-2.33l0.01 0zm-36.75 10.05c-0.05,-0.47 -2.07,-5.24 -2.52,-6.39 -0.59,-1.53 -0.44,-1.47 -1.2,-1.78 -2.12,-0.86 -6.51,-2.82 -8.31,-3.44 -0.13,1.37 0.14,3.87 0.19,5.35 0.06,1.53 0.31,4.01 0.16,5.43 1.13,0.85 0.26,0.91 2.27,0.89l9.42 -0.06 -0.01 0zm30.68 -1.75c0.06,-1.45 0.44,-9.26 0.37,-9.86 -2.11,0.74 -6,2.52 -8.37,3.46 -0.6,0.24 -0.5,0.2 -0.74,0.79l-2.13 5.28c-0.2,0.48 -0.75,1.69 -0.8,2.09l8.94 0.06c2.19,0.02 1.57,0.19 2.41,-0.61 0.49,-0.46 0.29,-0.45 0.32,-1.2l0 -0.01zm0.36 -10.75c0.06,-0.62 -1.36,-3.66 -1.67,-4.44 -0.25,-0.63 -1.61,-4 -1.86,-4.3l-4.89 12.27 8.42 -3.52 -0 -0.01zm-39.57 -8.73c-0.2,0.26 -2.44,5.75 -2.75,6.51 -0.88,2.21 -1.09,2.13 -0.21,2.48l3.65 1.51c0.73,0.31 1.37,0.57 2.1,0.88 0.59,0.25 1.54,0.7 2.17,0.85l-4.96 -12.22 0 -0.02zm45.9 3.21l-3.48 3.52c-0.31,0.31 -1.57,1.48 -1.67,1.8 0.58,0.27 4.51,1.81 4.92,1.87 0.15,-0.63 0.49,-1.37 0.7,-2.06 0.53,-1.72 1.35,-5.21 1.27,-6.87 -0.53,0.61 -1.09,1.07 -1.74,1.73l-0 0.01zm-53.99 1.74c-1.1,-1.13 -2.48,-2.39 -3.47,-3.46 -0.06,1.18 0.43,3.58 0.69,4.72 0.44,1.94 0.98,3.02 1.29,4.2 0.44,-0.04 4.42,-1.63 4.96,-1.89l-3.47 -3.56 -0 -0.01zm3.97 2.85c0.44,-1.3 2.96,-7.12 3.55,-8.54 0.22,-0.54 0.04,-0.69 -0.16,-1.19 -0.37,-0.87 -2.78,-7.11 -3.05,-7.44l-3.96 4.28c-0.6,0.7 -3.78,4.04 -3.87,4.26 -0.1,0.23 -0.09,0.7 -0.03,0.98 0.05,0.24 0.27,0.4 0.46,0.57 1.35,1.25 6.55,6.83 7.07,7.08l-0.01 0zm22.42 -25.96c-0.46,-0.17 -1.25,0.29 -1.69,0.47l-7.87 3.16c-3.73,1.55 -3.02,0.71 -3.9,2.78l-3.91 9.39c-0.21,0.5 -0.58,1.06 -0.36,1.62 0.83,2.11 1.71,4.18 2.55,6.31 0.82,2.08 1.67,4.21 2.54,6.32 0.4,0.95 0.15,0.73 1.11,1.14 2.67,1.15 8.85,3.77 10.99,4.47 0.67,0.22 5.51,-1.96 6.42,-2.34l4.72 -1.97c0.52,-0.22 1.12,-0.28 1.33,-0.83 0.84,-2.15 1.67,-4.22 2.54,-6.32 0.87,-2.11 1.65,-4.19 2.54,-6.31 0.41,-0.98 0.37,-0.73 -0.02,-1.69l-4.53 -10.92c-0.22,-0.5 -0.56,-0.47 -1.43,-0.83 -3.43,-1.39 -7.77,-3.24 -11.04,-4.44l0.01 -0.01zm21.96 25.94c0.6,-0.48 5.13,-5.18 6.08,-6.14 0.35,-0.35 0.64,-0.68 1,-1.01 0.31,-0.29 0.37,-0.22 0.4,-0.63 0.02,-0.28 0.05,-0.66 -0.08,-0.89l-1.96 -2.15c-0.12,-0.14 -5.58,-6.17 -5.85,-6.33 -0.23,0.29 -2.26,5.46 -2.67,6.52 -0.41,1.04 -0.78,1.5 -0.54,2.09 0.43,1.05 3.37,8.3 3.61,8.53l0.01 0.01zm-49.7 -19.94c-1,2.71 -2.27,6.74 -2.19,10.07 0.25,-0.17 0.74,-0.73 0.97,-0.99l2.7 -2.94c0.52,-0.61 3.44,-3.66 3.59,-3.99l-5.07 -2.15 0 -0zm57.13 10.06c0.1,-2.36 -1.22,-8.33 -2.2,-10.06l-5.04 2.18c0.16,0.33 0.61,0.69 0.89,1.02 1.28,1.5 3.24,3.43 4.51,4.92 0.33,0.39 1.52,1.74 1.85,1.95l-0.01 -0.01zm-47.69 -0.16l0.32 -0.65c0.64,-1.61 3.93,-9.27 4.05,-9.84l-6.48 2.57c-0.31,0.12 -0.68,0.24 -0.93,0.43l3.04 7.48 0 0.01zm39.09 -7.49c-0.19,-0.15 -0.18,-0.13 -0.45,-0.24l-6.94 -2.76c0.13,0.52 2.8,6.81 3.25,7.9 0.19,0.46 0.36,0.85 0.55,1.31l0.39 0.97c0.09,0.17 0,0 0.1,0.16 0.01,0.01 0.04,0.07 0.04,0.05 0,-0.01 0.03,0.04 0.04,0.05 0.29,-0.38 2.96,-7.23 3.02,-7.45l0 0zm-43.26 -10.83c-0.86,0.51 -4.6,6.18 -4.92,7.7l5.18 2.17 -0.26 -9.87zm49.33 7.69c-0.17,-0.84 -1.7,-3.37 -2.16,-4.1 -0.45,-0.72 -2.21,-3.27 -2.75,-3.58l-0.24 9.89 5.15 -2.21 0 -0zm-28.15 -5.89c-0.66,-0.21 -1.33,-0.55 -2.01,-0.82l-3.92 -1.63c-0.47,-0.19 -1.52,-0.7 -1.98,-0.77l-3.2 7.74c0.69,-0.15 2.07,-0.81 2.82,-1.11 0.93,-0.38 1.84,-0.73 2.76,-1.1l5.23 -2.1c0.09,-0.04 0.1,-0.04 0.17,-0.09 0.12,-0.08 0.06,-0.03 0.15,-0.13l-0.01 0.01zm9.96 -3.2c-0.29,0.01 -7.22,2.86 -7.88,3.21 0.07,0.09 -0.02,0.03 0.17,0.14l5.33 2.16c0.83,0.33 5.11,2.1 5.59,2.2l-3.22 -7.71 0.01 -0zm-30.1 11.35c0.38,-0.06 5.43,-2.15 6.22,-2.46 0.7,-0.29 1.65,-0.52 1.86,-0.95l3.34 -8.11c-2.39,-0.07 -6.18,0.05 -8.78,0.1 -0.48,0.01 -0.97,0.02 -1.45,0.02 -1.37,0.01 -1.48,0.13 -1.45,1.51l0.26 9.9 0 -0.01zm42.56 -8.61c0.06,-2.64 0.33,-2.78 -1.58,-2.8 -3.06,-0.04 -7.3,-0.2 -10.07,-0.12 0.16,0.59 2.12,5.13 2.54,6.17 0.86,2.18 0.61,2.07 1.75,2.52 1.36,0.53 6.62,2.76 7.14,2.83l0.23 -8.61 -0.01 0.01zm-13.08 -3.37c-0.22,-0.4 -1.68,-1.53 -2.07,-1.9 -0.69,-0.65 -1.35,-1.16 -2.06,-1.81l-4.19 -3.62 -3.15 2.73c-0.34,0.3 -0.72,0.59 -1.04,0.89 -0.72,0.67 -1.36,1.17 -2.09,1.85 -0.35,0.33 -1.88,1.53 -2.04,1.86 1.18,0.34 7.8,3.37 8.31,3.38 0.27,0 3.64,-1.46 4.2,-1.69l4.12 -1.69 0.01 0zm-17.87 -0.34c-0.15,-0.77 -2.12,-4.08 -2.5,-5.24 -1.57,0.37 -7.41,4.33 -7.94,5.37l10.45 -0.13 -0.01 0zm29.57 0.13c-0.31,-0.59 -2.98,-2.54 -3.67,-3.01 -0.7,-0.48 -3.41,-2.16 -4.27,-2.35 -0.4,1.19 -2.31,4.35 -2.5,5.23l10.45 0.13 -0.01 0zm-24.7 -4.09c0.7,-0.57 1.32,-1.19 2.02,-1.76 0.49,-0.4 1.61,-1.5 2.04,-1.74 -0.09,-0.27 -0.02,-0.06 -0.13,-0.3 -0.01,-0.02 -0.05,-0.1 -0.06,-0.11l-0.06 -0.12c-1.72,-0.02 -4.09,0.42 -5.68,0.8 -1.01,0.24 -4.27,1.17 -4.8,1.65 0.17,0.49 2.39,4.98 2.58,5.14 0.61,-0.41 3.21,-2.84 4.09,-3.55l0 -0.01zm16.05 -1.59c-0.53,-0.47 -3.83,-1.43 -4.86,-1.67 -1.71,-0.41 -3.78,-0.75 -5.61,-0.8 -0.05,0.07 -0.22,0.46 -0.25,0.54 0.64,0.39 7.77,6.91 8.2,7.07l2.51 -5.14 0 0zm19.08 29.63c-0.43,6.31 -2.6,12.2 -6.21,16.89 -0.86,1.11 -2.6,3.16 -3.63,4.03 -3.17,2.68 -5.21,4.29 -9.37,6.01 -3.8,1.56 -8.38,2.57 -13,2.24 -7.03,-0.52 -13.3,-3.38 -18.28,-7.75 -1.02,-0.89 -1.49,-1.48 -2.37,-2.38 -2.07,-2.13 -4.59,-5.98 -5.91,-9.47 -3.23,-8.61 -2.85,-17.17 1.16,-25.37 1.38,-2.82 2.82,-4.65 4.72,-6.87 1.02,-1.2 2.67,-2.69 3.96,-3.69 9.25,-7.2 21.64,-8.66 32.22,-3.06 4.16,2.2 7.64,5.1 10.44,8.81 4.34,5.77 6.79,13.08 6.27,20.62l-0.01 -0.02z"/>
   <path class="fil3" d="M231.07 1122.43c-0.24,-0.22 -3.18,-7.48 -3.61,-8.53 -0.25,-0.6 0.13,-1.05 0.54,-2.09 0.42,-1.06 2.44,-6.24 2.67,-6.52 0.26,0.16 5.72,6.19 5.85,6.33l1.96 2.15c0.13,0.23 0.1,0.61 0.08,0.89 -0.03,0.41 -0.08,0.35 -0.4,0.63 -0.37,0.33 -0.66,0.66 -1,1.01 -0.94,0.96 -5.48,5.66 -6.08,6.14l-0.01 -0.01z"/>
   <path class="fil3" d="M186.69 1122.44c-0.52,-0.25 -5.72,-5.83 -7.07,-7.08 -0.19,-0.17 -0.41,-0.33 -0.46,-0.57 -0.06,-0.27 -0.07,-0.74 0.03,-0.98 0.1,-0.22 3.27,-3.56 3.87,-4.26l3.96 -4.28c0.27,0.34 2.69,6.57 3.05,7.44 0.2,0.49 0.39,0.65 0.16,1.19 -0.59,1.42 -3.1,7.24 -3.55,8.54l0.01 0z"/>
   <path class="fil3" d="M199.35 1135.88l-9.42 0.06c-2.01,0.02 -1.14,-0.04 -2.27,-0.89 0.15,-1.42 -0.1,-3.9 -0.16,-5.43 -0.05,-1.48 -0.32,-3.98 -0.19,-5.35 1.8,0.62 6.2,2.58 8.31,3.44 0.76,0.31 0.61,0.26 1.2,1.78 0.45,1.16 2.47,5.93 2.52,6.39l0.01 0z"/>
   <path class="fil3" d="M218.35 1135.88c0.05,-0.4 0.6,-1.6 0.8,-2.09l2.13 -5.28c0.24,-0.59 0.15,-0.55 0.74,-0.79 2.37,-0.94 6.26,-2.72 8.37,-3.46 0.07,0.6 -0.31,8.41 -0.37,9.86 -0.03,0.75 0.17,0.74 -0.32,1.2 -0.84,0.79 -0.22,0.62 -2.41,0.61l-8.94 -0.06 0 0.01z"/>
   <path class="fil3" d="M230.02 1104.01c-0.52,-0.07 -5.78,-2.3 -7.14,-2.83 -1.14,-0.45 -0.89,-0.35 -1.75,-2.52 -0.41,-1.04 -2.38,-5.58 -2.54,-6.17 2.77,-0.09 7,0.08 10.07,0.12 1.91,0.02 1.64,0.16 1.58,2.8l-0.23 8.61 0.01 -0.01z"/>
   <path class="fil3" d="M187.69 1104.02l-0.26 -9.9c-0.03,-1.38 0.08,-1.5 1.45,-1.51 0.48,-0.01 0.96,-0.02 1.45,-0.02 2.6,-0.05 6.39,-0.17 8.78,-0.1l-3.34 8.11c-0.21,0.43 -1.17,0.67 -1.86,0.95 -0.79,0.32 -5.84,2.41 -6.22,2.46l0 0.01z"/>
   <path class="fil3" d="M217.17 1092.03l-4.12 1.69c-0.56,0.24 -3.93,1.69 -4.2,1.69 -0.52,0 -7.13,-3.04 -8.31,-3.38 0.16,-0.33 1.68,-1.54 2.04,-1.86 0.73,-0.68 1.37,-1.18 2.09,-1.85 0.33,-0.3 0.7,-0.6 1.04,-0.89l3.15 -2.73 4.19 3.62c0.71,0.66 1.37,1.17 2.06,1.81 0.39,0.37 1.86,1.5 2.07,1.9l-0.01 0z"/>
   <path class="fil3" d="M216.94 1136.38c-0.25,0.41 -1.54,1.41 -1.98,1.85l-2.03 1.84c-0.69,0.6 -1.36,1.21 -2.04,1.83 -0.37,0.33 -0.7,0.61 -1.02,0.92 -0.36,0.35 -0.63,0.67 -1.04,0.91 -0.31,-0.19 -0.8,-0.65 -1.05,-0.9l-5.07 -4.59c-0.37,-0.36 -1.79,-1.55 -1.98,-1.85 0.44,-0.26 1.44,-0.6 1.96,-0.81 0.88,-0.35 5.61,-2.31 6.13,-2.31 0.52,0 5.23,1.96 6.13,2.31 0.5,0.2 1.57,0.57 1.97,0.82l0.02 -0.02z"/>
   <path class="fil3" d="M195.77 1126.87c-0.63,-0.15 -1.57,-0.6 -2.17,-0.85 -0.73,-0.31 -1.37,-0.57 -2.1,-0.88l-3.65 -1.51c-0.88,-0.34 -0.67,-0.27 0.21,-2.48 0.3,-0.76 2.55,-6.24 2.75,-6.51l4.96 12.22 0 0.02z"/>
   <path class="fil3" d="M230.39 1123.38l-8.42 3.52 4.89 -12.27c0.24,0.3 1.61,3.67 1.86,4.3 0.31,0.79 1.73,3.83 1.67,4.44l0 0.01z"/>
   <path class="fil3" d="M208.2 1084.22c-0.43,0.24 -1.54,1.35 -2.04,1.74 -0.7,0.57 -1.31,1.2 -2.02,1.76 -0.88,0.71 -3.48,3.15 -4.09,3.55 -0.19,-0.16 -2.41,-4.65 -2.58,-5.14 0.53,-0.48 3.79,-1.41 4.8,-1.65 1.59,-0.39 3.96,-0.82 5.68,-0.8l0.06 0.12c0.01,0.02 0.05,0.09 0.06,0.11 0.11,0.24 0.04,0.03 0.13,0.3l0 0.01z"/>
   <path class="fil3" d="M220.2 1086.14l-2.51 5.14c-0.44,-0.16 -7.56,-6.68 -8.2,-7.07 0.03,-0.08 0.2,-0.47 0.25,-0.54 1.83,0.05 3.9,0.39 5.61,0.8 1.02,0.24 4.33,1.19 4.86,1.67l-0 0z"/>
   <path class="fil3" d="M221 1100.38c-0.48,-0.1 -4.76,-1.87 -5.59,-2.2l-5.33 -2.16c-0.19,-0.11 -0.1,-0.05 -0.17,-0.14 0.67,-0.35 7.59,-3.2 7.88,-3.21l3.22 7.71 -0.01 0z"/>
   <path class="fil3" d="M207.81 1095.87c-0.09,0.09 -0.02,0.05 -0.15,0.13 -0.07,0.04 -0.07,0.05 -0.17,0.09l-5.23 2.1c-0.91,0.37 -1.83,0.72 -2.76,1.1 -0.75,0.3 -2.13,0.96 -2.82,1.11l3.2 -7.74c0.46,0.07 1.51,0.58 1.98,0.77l3.92 1.63c0.67,0.27 1.35,0.61 2.01,0.82l0.01 -0.01z"/>
   <path class="fil3" d="M229.91 1104.9c-0.05,0.22 -2.73,7.07 -3.02,7.45 -0.02,-0.02 -0.04,-0.06 -0.04,-0.05 -0.01,0.02 -0.04,-0.04 -0.04,-0.05 -0.1,-0.16 -0.01,0.01 -0.1,-0.16l-0.39 -0.97c-0.19,-0.46 -0.35,-0.84 -0.55,-1.31 -0.45,-1.09 -3.13,-7.38 -3.25,-7.9l6.94 2.76c0.28,0.11 0.26,0.08 0.45,0.24l-0 -0z"/>
   <path class="fil3" d="M190.81 1112.39l-3.04 -7.48c0.25,-0.19 0.62,-0.31 0.93,-0.43l6.48 -2.57c-0.13,0.57 -3.41,8.22 -4.05,9.84l-0.32 0.65 0 -0.01z"/>
   <path class="fil3" d="M207.64 1132.75c-1.05,0.4 -6.88,2.86 -7.41,2.92 -0.24,-0.29 -2.8,-6.59 -2.98,-7.26 0.56,0.13 10.25,4.22 10.38,4.34l0.01 0z"/>
   <path class="fil3" d="M217.46 1135.67c-0.62,-0.08 -6.19,-2.48 -7.4,-2.92 0.3,-0.23 4.45,-1.91 5.13,-2.18 1.03,-0.41 4.65,-2 5.26,-2.16 -0.13,0.57 -2.76,7 -2.98,7.26l-0.01 0z"/>
   <path class="fil3" d="M208.11 1144.18c-1.22,0.13 -4.23,-0.42 -5.39,-0.69 -1.77,-0.41 -3.1,-0.92 -4.66,-1.45 0.12,-0.52 1.74,-4.89 1.94,-5.18 0.28,0.12 2.59,2.32 3.07,2.74l2.04 1.83c0.19,0.17 0.3,0.31 0.5,0.47 0.2,0.17 0.33,0.27 0.52,0.45 0.69,0.68 1.33,1.18 1.99,1.84l-0.01 -0.01z"/>
   <path class="fil3" d="M219.65 1142.04c-0.71,0.21 -1.48,0.54 -2.25,0.79 -1.86,0.6 -6.1,1.54 -7.8,1.35l2.51 -2.29c0.19,-0.17 0.31,-0.31 0.5,-0.47 0.35,-0.3 0.66,-0.61 1.02,-0.91 0.35,-0.28 0.69,-0.62 1.02,-0.91 0.34,-0.3 0.72,-0.64 1.01,-0.93 0.39,-0.38 0.61,-0.52 1.01,-0.92 0.19,-0.19 0.83,-0.8 1.05,-0.89 0.19,0.26 1.83,4.65 1.94,5.19l-0.02 -0.01z"/>
   <path class="fil3" d="M186.44 1104.64c-0.15,0.33 -3.07,3.38 -3.59,3.99l-2.7 2.94c-0.22,0.26 -0.72,0.82 -0.97,0.99 -0.08,-3.32 1.18,-7.36 2.19,-10.07l5.07 2.15 0 0z"/>
   <path class="fil3" d="M238.5 1112.55c-0.32,-0.21 -1.52,-1.57 -1.85,-1.95 -1.27,-1.48 -3.23,-3.42 -4.51,-4.92 -0.28,-0.32 -0.73,-0.69 -0.89,-1.02l5.04 -2.18c0.98,1.73 2.31,7.7 2.2,10.06l0.01 0.01z"/>
   <path class="fil3" d="M199.29 1091.69l-10.45 0.13c0.53,-1.05 6.37,-5 7.94,-5.37 0.39,1.16 2.35,4.47 2.5,5.24l0.01 0z"/>
   <path class="fil3" d="M228.85 1091.81l-10.45 -0.13c0.19,-0.88 2.1,-4.05 2.5,-5.23 0.87,0.19 3.57,1.87 4.27,2.35 0.69,0.47 3.36,2.42 3.67,3.01l0.01 -0z"/>
   <path class="fil3" d="M236.09 1125.83c-0.11,0.54 -0.82,1.84 -1.08,2.33 -0.85,1.59 -2.91,4.83 -4.17,5.94 -0.1,-0.84 0.3,-7.67 0.35,-9.4 0.03,-1.06 -0.29,-0.96 1.79,-0.13 0.69,0.28 2.68,0.94 3.12,1.26l-0.01 0z"/>
   <path class="fil3" d="M186.89 1134.08c-1.04,-0.58 -4.94,-6.65 -5.28,-8.25 0.32,-0.22 4.63,-1.9 4.88,-1.88l0.4 10.13 -0 0z"/>
   <path class="fil3" d="M186.9 1103.94l-5.18 -2.17c0.32,-1.52 4.06,-7.19 4.92,-7.7l0.26 9.87z"/>
   <path class="fil3" d="M235.96 1101.76l-5.15 2.21 0.24 -9.89c0.54,0.31 2.3,2.86 2.75,3.58 0.46,0.73 1.99,3.26 2.16,4.1l0 0z"/>
   <path class="fil3" d="M236.48 1125.05c-0.41,-0.06 -4.34,-1.6 -4.92,-1.87 0.09,-0.31 1.35,-1.48 1.67,-1.8l3.48 -3.52c0.65,-0.67 1.22,-1.13 1.74,-1.73 0.08,1.66 -0.74,5.15 -1.27,6.87 -0.21,0.69 -0.55,1.43 -0.7,2.06l0 -0.01z"/>
   <path class="fil3" d="M197.31 1141.68c-0.89,-0.2 -3.39,-1.69 -4.15,-2.18 -0.7,-0.46 -3.36,-2.29 -3.62,-2.76l9.6 -0.07 -1.83 5.01z"/>
   <path class="fil3" d="M220.38 1141.68l-1.86 -5.01 9.59 0.05c-0.24,0.73 -6.2,4.58 -7.73,4.96l-0 0z"/>
   <path class="fil3" d="M186.19 1123.15c-0.54,0.26 -4.52,1.85 -4.96,1.89 -0.31,-1.18 -0.84,-2.25 -1.29,-4.2 -0.26,-1.14 -0.75,-3.54 -0.69,-4.72 0.99,1.07 2.37,2.34 3.47,3.46l3.47 3.56 0 0.01z"/>
  </g>
 </g>
</svg>
